<?xml version="1.0" encoding="utf-8"?>
<!-- Generator: Adobe Illustrator 23.0.3, SVG Export Plug-In . SVG Version: 6.00 Build 0)  -->
<svg version="1.1" id="Capa_1" xmlns="http://www.w3.org/2000/svg" xmlns:xlink="http://www.w3.org/1999/xlink" x="0px" y="0px"
	 viewBox="0 0 31.4 31.4" style="enable-background:new 0 0 31.4 31.4;" xml:space="preserve">
<style type="text/css">
	.st0{fill:#FD7F31;}
</style>
<g>
	<g>
		<path class="st0" d="M26.2,8.7l-0.4,0.1l-2,0.2l-0.6,0.9l-0.4-0.1l-1.6-1.4L21,7.6l-0.3-0.8l-1-0.9l-1.2-0.2v0.5l1.2,1.1L20.2,8
			l-0.6,0.3L19,8.2l-0.8-0.3V7.3l-1-0.4l-0.3,1.5l-1,0.2L16,9.3l1.3,0.3l0.2-1.3l1.1,0.2l0.5,0.3H20l0.6,1.1l1.5,1.5L22,12l-1.2-0.2
			l-2.1,1.1l-1.5,1.8L17,15.5h-0.5l-1-0.5l-1,0.5l0.2,1l0.4-0.5h0.7l-0.1,0.9l0.6,0.2l0.6,0.7l1-0.3l1.2,0.2l1.3,0.4l0.7,0.1
			l1.1,1.3l2.2,1.3L23,23.5l-1.5,0.7l-0.6,1.5l-2.2,1.4V28c5.5-1.3,9.7-6.3,9.7-12.2C28.3,13.1,27.5,10.7,26.2,8.7z"/>
		<path class="st0" d="M17.2,22.3l-0.9-1.7l0.8-1.8l-0.8-0.3l-0.9-1L13.3,17l-0.7-1.5v0.9h-0.3l-1.8-2.5v-2L9.1,10L7,10.3H5.5
			L4.8,9.9l0.9-0.7L4.8,9.4c-1.1,1.9-1.7,4-1.7,6.4c0,7,5.6,12.6,12.6,12.6c0.5,0,1.1,0,1.6-0.1l-0.1-1.5l0.6-2.3
			C17.7,24.3,17.2,22.3,17.2,22.3z"/>
		<path class="st0" d="M7.8,7.2L10,6.8l1-0.6l1.2,0.3l1.9-0.1l0.6-1l0.9,0.2l2.3-0.2l0.6-0.7l0.9-0.6l1.2,0.2l0.5-0.1
			C19.5,3.4,17.7,3,15.7,3C11.8,3,8.3,4.8,6,7.6l0,0L7.8,7.2z M16.2,4.3l1.3-0.7l0.8,0.5L17.2,5L16,5.1l-0.5-0.3L16.2,4.3z
			 M12.4,4.5L13,4.7l0.7-0.2l0.4,0.7l-1.7,0.5l-0.8-0.5C11.6,5.1,12.4,4.6,12.4,4.5z"/>
	</g>
</g>
</svg>
