<?xml version="1.0" encoding="utf-8"?>
<!-- Generator: Adobe Illustrator 23.0.3, SVG Export Plug-In . SVG Version: 6.00 Build 0)  -->
<svg version="1.1" id="Layer_1" xmlns="http://www.w3.org/2000/svg" xmlns:xlink="http://www.w3.org/1999/xlink" x="0px" y="0px"
	 viewBox="0 0 1708 1708" style="enable-background:new 0 0 1708 1708;" xml:space="preserve">
<style type="text/css">
	.st0{fill:#FD7F31;}
</style>
<g id="surface1">
	<path class="st0" d="M354,417.4c4.2,1.1,8.1,3.3,11.2,6.4l345.9,346l62.6-62.6l-346-346c-3.1-3.1-5.3-7-6.4-11.3l-21.8-86.8
		l-144.3-82.5l-70.7,70.7L267,395.7L354,417.4z"/>
	<path class="st0" d="M661.6,1206.6l549-549c6-6,14.7-8.4,23-6.4c72.3,18.5,149,2.5,207.9-43.4c58.8-45.9,93.1-116.5,92.7-191.1
		c0-4.5-0.1-9.1-0.4-13.7L1406,530.6c-6.5,6.5-16.1,8.7-24.8,5.8L1236,488.1c-7.2-2.4-12.9-8.1-15.3-15.3l-48.4-145.2
		c-2.9-8.7-0.6-18.3,5.8-24.8l127.7-127.7c-76.9-4.8-151.4,27.5-200.5,86.9s-66.8,138.6-47.7,213.3c2.1,8.3-0.3,17-6.4,23
		l-549,548.9c-6,6-14.7,8.4-23,6.4c-19.1-4.9-38.8-7.5-58.5-7.5c-104.2-0.7-197.4,65-231.7,163.5c-34.3,98.4-2.2,207.8,79.9,272.1
		s196,69.2,283.3,12.2s128.7-163.2,103-264.2C653.1,1221.3,655.6,1212.6,661.6,1206.6z M479.6,1384.9H361.8l-58.1-96.8l58.1-96.8
		h117.8l58.1,96.8L479.6,1384.9z M573,1101.5L1105.5,569l34.2,34.2l-532.5,532.5L573,1101.5z"/>
	<path class="st0" d="M1335.6,1520.7c53.9,20.3,114.7,7.1,155.4-33.6c40.7-40.7,53.9-101.5,33.6-155.4L1335.6,1520.7z"/>
	<path class="st0" d="M1491,1279.3l-271.8-272c-30,25.2-74.3,23.3-102-4.4c-27.7-27.7-29.7-71.9-4.5-102l-38.5-38.5l-207.8,207.8
		l38.7,38.7c30-25.2,74.3-23.3,102,4.4c27.7,27.7,29.7,72,4.5,102l271.6,271.8c3,3,6.1,5.7,9.2,8.4l207-207
		C1496.8,1285.3,1494,1282.2,1491,1279.3z M1347.5,1377.8l-242-242l34.2-34.2l242,242.1L1347.5,1377.8z"/>
</g>
</svg>
