<?xml version="1.0" encoding="utf-8"?>
<!-- Generator: Adobe Illustrator 23.0.3, SVG Export Plug-In . SVG Version: 6.00 Build 0)  -->
<svg version="1.1" id="Capa_1" xmlns="http://www.w3.org/2000/svg" xmlns:xlink="http://www.w3.org/1999/xlink" x="0px" y="0px"
	 viewBox="0 0 380 380" style="enable-background:new 0 0 380 380;" xml:space="preserve">
<style type="text/css">
	.st0{fill:#FD7F31;}
</style>
<g>
	<g>
		<g>
			<path class="st0" d="M190,26.1C99.6,26.1,26.1,99.6,26.1,190S99.6,353.9,190,353.9S353.9,280.4,353.9,190S280.4,26.1,190,26.1z
				 M258.9,299.5l-7.1-12.1c-0.8-1.4-2.3-2.3-4-2.3c-0.8,0-1.6,0.2-2.3,0.6c-1.1,0.6-1.8,1.6-2.1,2.8c-0.3,1.2-0.1,2.4,0.5,3.5
				l7.1,12.2c-15.8,8.5-33.6,13.8-52.4,15V302c0-4.8-3.9-8.6-8.6-8.6c-4.8,0-8.6,3.9-8.6,8.6v17.2c-18.6-1.2-36.1-6.4-51.7-14.7
				l7-12.2c0.6-1.1,0.8-2.3,0.4-3.5c-0.3-1.2-1.1-2.2-2.1-2.8c-0.7-0.4-1.5-0.6-2.3-0.6c-1.6,0-3.2,0.9-4,2.3l-7,12.2
				c-15.6-9.7-29-22.7-39.2-37.9l14.8-8.6c4.1-2.4,5.5-7.7,3.2-11.8c-2.4-4.1-7.7-5.5-11.8-3.2L73.9,247
				c-7.8-15.8-12.5-33.5-13.2-52.1h14.1c1.2,0,2.4-0.5,3.2-1.3c0.9-0.9,1.3-2,1.3-3.2c0-2.5-2.1-4.6-4.6-4.6H60.6
				c0.6-18.9,5.3-36.8,13.2-52.9l14.8,8.6c1.4,0.8,2.8,1.2,4.3,1.2c3,0,5.9-1.5,7.5-4.3c2.4-4.1,1-9.4-3.2-11.8L82.5,118
				c10.1-15,23.2-27.8,38.5-37.5l7.1,12.1c0.4,0.7,1,1.3,1.7,1.7c1.4,0.8,3.2,0.8,4.6,0c1.1-0.6,1.8-1.6,2.1-2.8
				c0.3-1.2,0.1-2.4-0.5-3.5l-7-12.1c15.8-8.5,33.6-13.8,52.4-15v17.2c0,4.8,3.9,8.6,8.6,8.6c4.8,0,8.6-3.9,8.6-8.6V60.9
				c18.6,1.2,36.1,6.4,51.7,14.7l-7,12.2c-1.3,2.2-0.5,5,1.7,6.2c0.7,0.4,1.5,0.6,2.3,0.6c1.6,0,3.2-0.9,4-2.3l7-12.2
				c15.6,9.7,29,22.7,39.2,37.9l-14.8,8.6c-4.1,2.4-5.5,7.7-3.2,11.8c1.6,2.8,4.5,4.3,7.5,4.3c1.5,0,2.9-0.4,4.3-1.2l14.8-8.6
				c7.8,15.8,12.5,33.5,13.2,52.1h-14.1c-1.2,0-2.4,0.5-3.2,1.3c-0.9,0.9-1.3,2-1.3,3.2c0,1.6,0.9,3.1,2.3,4
				c0.7,0.4,1.5,0.6,2.3,0.6l0,0h14.1c-0.6,18.9-5.3,36.9-13.2,52.9l-14.8-8.6c-4.1-2.4-9.4-1-11.8,3.2c-2.4,4.1-1,9.4,3.2,11.8
				l14.8,8.6C287.4,277,274.2,289.8,258.9,299.5z"/>
			<path class="st0" d="M253.7,143.2l-55.3,30.7c-2.5-1.3-5.4-2.1-8.4-2.1s-5.9,0.8-8.4,2.1l-55.3-30.7c-5.2-2.9-11.8-1-14.7,4.2
				c-2.9,5.2-1,11.8,4.2,14.7l56.4,31.3c1.6,8.4,9,14.7,17.8,14.7s16.2-6.3,17.8-14.7l56.4-31.3c5.2-2.9,7.1-9.5,4.2-14.7
				C265.6,142.2,259,140.3,253.7,143.2z"/>
		</g>
	</g>
</g>
</svg>
