<?xml version="1.0" encoding="utf-8"?>
<!-- Generator: Adobe Illustrator 23.0.3, SVG Export Plug-In . SVG Version: 6.00 Build 0)  -->
<svg version="1.1" id="Capa_1" xmlns="http://www.w3.org/2000/svg" xmlns:xlink="http://www.w3.org/1999/xlink" x="0px" y="0px"
	 viewBox="0 0 402 402" style="enable-background:new 0 0 402 402;" xml:space="preserve">
<style type="text/css">
	.st0{fill:#FD7F31;}
</style>
<g>
	<path class="st0" d="M302.9,111.8c-1.4-1.4-3.2-2.1-5.3-2.1H258c-2.6-12.8-7.6-23.9-14.8-33.4h54c2.2,0,3.9-0.7,5.3-2.1
		s2.1-3.2,2.1-5.3V45.3c0-2.2-0.7-3.9-2.1-5.3c-1.4-1.4-3.2-2.1-5.3-2.1H104.4c-2.2,0-3.9,0.7-5.3,2.1c-1.4,1.4-2.1,3.2-2.1,5.3
		v30.8c0,2,0.7,3.7,2.2,5.2s3.2,2.2,5.2,2.2H138c32.6,0,53.3,8.7,62.1,26.2h-95.7c-2.2,0-3.9,0.7-5.3,2.1S97,115,97,117.1v23.6
		c0,2.2,0.7,3.9,2.1,5.3c1.4,1.4,3.2,2.1,5.3,2.1h98.9c-3.4,12.7-11.3,22.3-23.7,29c-12.4,6.6-28.8,10-49.2,10h-25.9
		c-2,0-3.7,0.7-5.2,2.2s-2.2,3.2-2.2,5.2v29.4c0,2,0.7,3.7,2.1,5.1c29.6,31.5,68.1,75.6,115.3,132.3c1.4,1.9,3.3,2.8,5.8,2.8h45.2
		c3.2,0,5.5-1.4,6.7-4.2c1.5-2.8,1.2-5.4-0.9-7.9c-45.1-55.3-80.5-96.7-106.3-124.2c26.3-3.1,47.6-11.6,63.9-25.5
		c16.4-13.9,26.3-32,29.9-54.2h38.9c2.2,0,3.9-0.7,5.3-2.1c1.4-1.4,2.1-3.2,2.1-5.3v-23.6C305,115,304.3,113.2,302.9,111.8z"/>
</g>
</svg>
