<?xml version="1.0" encoding="utf-8"?>
<!-- Generator: Adobe Illustrator 23.0.3, SVG Export Plug-In . SVG Version: 6.00 Build 0)  -->
<svg version="1.1" id="Layer_1" xmlns="http://www.w3.org/2000/svg" xmlns:xlink="http://www.w3.org/1999/xlink" x="0px" y="0px"
	 viewBox="0 0 512 512" style="enable-background:new 0 0 512 512;" xml:space="preserve">
<style type="text/css">
	.st0{fill:#FD7F31;}
</style>
<path class="st0" d="M200.5,349.7V429c0,5.5,3.6,10.4,8.8,12.2c1.3,0.4,2.7,0.6,4,0.6c4,0,7.9-1.9,10.3-5.2l46.3-63.1L200.5,349.7z"
	/>
<path class="st0" d="M455.6,51.3c-3.9-2.8-9.1-3.2-13.4-0.9L57.9,251.1c-4.5,2.4-7.2,7.2-6.8,12.3c0.4,5.1,3.8,9.5,8.6,11.2
	l106.8,36.5L394,116.5L218,328.6l179.1,61.2c1.3,0.4,2.7,0.7,4.1,0.7c2.3,0,4.6-0.6,6.7-1.9c3.2-2,5.4-5.3,6-9.1l47-316
	C461.5,58.8,459.5,54.1,455.6,51.3z"/>
</svg>
