<?xml version="1.0" encoding="utf-8"?>
<!-- Generator: Adobe Illustrator 23.0.3, SVG Export Plug-In . SVG Version: 6.00 Build 0)  -->
<svg version="1.1" id="Layer_1" xmlns="http://www.w3.org/2000/svg" xmlns:xlink="http://www.w3.org/1999/xlink" x="0px" y="0px"
	 viewBox="0 0 512 512" style="enable-background:new 0 0 512 512;" xml:space="preserve">
<style type="text/css">
	.st0{fill:#FD7F31;}
</style>
<path class="st0" d="M377.3,438.7h-12.1v-37.2c0-6.7-5.4-12.1-12.1-12.1H159c-6.7,0-12.1,5.4-12.1,12.1v37.2h-12.1
	c-6.7,0-12.1,5.4-12.1,12.1s5.3,12.2,12,12.2h242.6c6.7,0,12.1-5.4,12.1-12.1S384,438.7,377.3,438.7z"/>
<path class="st0" d="M426.6,49c-39.3,0-286,0-341.2,0C65.3,49,49,65.3,49,85.4v18.5c0,29.9,10.3,59.3,29,82.7
	c16,20,37.2,34.8,61.5,42.9l12.9,4.3c14.9,24.3,38.3,43.1,66.4,52v18.9c0,6.7-5.4,12.1-12.1,12.1c-20.1,0-36.4,16.3-36.4,36.4v12.1
	h171.4V353c0-20.1-16.3-36.4-36.4-36.4c-6.7,0-12.1-5.4-12.1-12.1v-18.9c28.1-8.9,51.5-27.6,66.4-52l12.9-4.3
	c24.3-8.1,45.5-22.9,61.5-42.9c18.7-23.4,29-52.7,29-82.7V85.4C463,65.3,446.7,49,426.6,49z M96.9,171.4
	c-15.3-19.1-23.7-43.1-23.7-67.5V85.4c0-6.7,5.4-12.1,12.1-12.1H123l12.4,111.1c0.7,6.4,2,12.6,3.7,18.7
	C122.7,196.1,108.1,185.4,96.9,171.4z M312.9,152.9l-19.5,18.6l4.6,26.2c0.8,4.5-1,9.1-4.7,11.9c-3.7,2.7-8.6,3.2-12.7,1L256,198
	l-24.4,12.6c-4.1,2.1-9,1.7-12.7-1s-5.5-7.3-4.7-11.9l4.6-26.2l-19.5-18.6c-3.4-3.2-4.6-8.1-3.2-12.5c1.4-4.4,5.3-7.7,9.9-8.3
	l27.3-3.9l12.1-24c4.1-8.2,17.5-8.2,21.7,0l12.1,24l27.3,3.9c4.6,0.7,8.4,3.9,9.9,8.3C317.5,144.8,316.2,149.6,312.9,152.9z
	 M438.7,103.9c0,24.4-8.4,48.4-23.7,67.5c-11.2,14-25.7,24.7-42.1,31.7c1.7-6.1,3-12.3,3.7-18.7L389,73.3h37.7
	c6.7,0,12.1,5.4,12.1,12.1v18.5H438.7z"/>
<path class="st0" d="M260.2,144.8l-4.2-8.2l-4.2,8.2c-1.8,3.5-5.2,6-9.1,6.5l-8.7,1.2l6.1,5.8c2.9,2.8,4.3,6.9,3.6,10.9l-1.5,8.6
	l8.3-4.3c3.5-1.8,7.6-1.8,11.1,0l8.3,4.3l-1.5-8.6c-0.7-4,0.6-8.1,3.6-10.9l6.1-5.8l-8.7-1.2C265.4,150.8,262,148.3,260.2,144.8z"/>
</svg>
