<?xml version="1.0" encoding="utf-8"?>
<!-- Generator: Adobe Illustrator 23.0.3, SVG Export Plug-In . SVG Version: 6.00 Build 0)  -->
<svg version="1.1" id="Layer_1" xmlns="http://www.w3.org/2000/svg" xmlns:xlink="http://www.w3.org/1999/xlink" x="0px" y="0px"
	 viewBox="0 0 297 297" style="enable-background:new 0 0 297 297;" xml:space="preserve">
<style type="text/css">
	.st0{fill:#FD7F31;}
</style>
<g>
	<path class="st0" d="M164.3,232.6l-3.8-1.2c-1.4-0.4-2.9-0.3-4.2,0.3l-7.7,3.7l-7.7-3.7c-1.3-0.6-2.8-0.7-4.2-0.3l-3.8,1.2
		c-6.6,2.2-11.1,8.4-11.1,15.4v17.1c0,3.2,2.6,5.8,5.8,5.8h42.1c3.2,0,5.8-2.6,5.8-5.8V248C175.4,241,170.9,234.8,164.3,232.6
		L164.3,232.6z"/>
	<path class="st0" d="M130.2,209.6c0,10.1,8.2,18.3,18.3,18.3s18.3-8.2,18.3-18.3s-8.2-18.3-18.3-18.3S130.2,199.6,130.2,209.6
		L130.2,209.6z"/>
	<path class="st0" d="M127.4,106.4h42.1c3.2,0,5.8-2.6,5.8-5.8V83.5c0-7-4.5-13.2-11.1-15.4l-3.8-1.2c-1.4-0.4-2.9-0.3-4.2,0.3
		l-7.7,3.7l-7.7-3.7c-1.3-0.6-2.8-0.7-4.2-0.3l-3.8,1.2c-6.6,2.2-11.1,8.4-11.1,15.4v17.1C121.6,103.8,124.2,106.4,127.4,106.4z"/>
	<path class="st0" d="M148.5,62.6c10.1,0,18.3-8.2,18.3-18.3S158.6,26,148.5,26s-18.3,8.2-18.3,18.3S138.4,62.6,148.5,62.6z"/>
	<path class="st0" d="M75.7,232.6l-3.9-1.2c-1.4-0.4-2.9-0.3-4.2,0.3l-7.7,3.7l-7.7-3.7c-1.3-0.6-2.8-0.7-4.2-0.3l-3.8,1.2
		C37.5,234.8,33,241,33,248v17.1c0,3.2,2.6,5.8,5.8,5.8H81c3.2,0,5.8-2.6,5.8-5.8V248C86.8,241,82.3,234.8,75.7,232.6L75.7,232.6z"
		/>
	<path class="st0" d="M59.9,227.9c10.1,0,18.3-8.2,18.3-18.3s-8.2-18.3-18.3-18.3s-18.3,8.2-18.3,18.3S49.8,227.9,59.9,227.9z"/>
	<path class="st0" d="M252.9,232.6l-3.8-1.2c-1.4-0.4-2.9-0.3-4.2,0.3l-7.7,3.7l-7.7-3.7c-1.3-0.6-2.8-0.7-4.2-0.3
		c0,0-3.8,1.2-3.9,1.2c-6.6,2.2-11.1,8.4-11.1,15.4v17.1c0,3.2,2.6,5.8,5.8,5.8h42.1c3.2,0,5.8-2.6,5.8-5.8V248
		C264,241,259.5,234.8,252.9,232.6L252.9,232.6z"/>
	<path class="st0" d="M218.8,209.6c0,10.1,8.2,18.3,18.3,18.3s18.3-8.2,18.3-18.3s-8.2-18.3-18.3-18.3
		C227,191.4,218.8,199.6,218.8,209.6L218.8,209.6z"/>
	<path class="st0" d="M59.9,176.2c3.9,0,7.1-3.2,7.1-7.1V155h74.5v14.1c0,3.9,3.2,7.1,7.1,7.1c3.9,0,7.1-3.2,7.1-7.1V155H230v14.1
		c0,3.9,3.2,7.1,7.1,7.1c3.9,0,7.1-3.2,7.1-7.1v-21.2c0-3.9-3.2-7.1-7.1-7.1h-81.5v-19.5c0-3.9-3.2-7.1-7.1-7.1
		c-3.9,0-7.1,3.2-7.1,7.1v19.5H59.9c-3.9,0-7.1,3.2-7.1,7.1v21.2C52.8,173,56,176.2,59.9,176.2L59.9,176.2z"/>
</g>
</svg>
