<?xml version="1.0" encoding="utf-8"?>
<!-- Generator: Adobe Illustrator 23.0.3, SVG Export Plug-In . SVG Version: 6.00 Build 0)  -->
<svg version="1.1" id="Capa_1" xmlns="http://www.w3.org/2000/svg" xmlns:xlink="http://www.w3.org/1999/xlink" x="0px" y="0px"
	 viewBox="0 0 536.1 536.1" style="enable-background:new 0 0 536.1 536.1;" xml:space="preserve">
<style type="text/css">
	.st0{fill:#FD7F31;}
</style>
<g>
	<path class="st0" d="M169.7,124.1c0-30.9,25-55.9,55.9-55.9s55.9,25,55.9,55.9s-25,55.9-55.9,55.9S169.7,155,169.7,124.1z
		 M252.4,218.1c0.6-12.2,4.8-23.4,11.5-32.8c-4.7-1-9.6-1.5-14.6-1.5h-47.4c-5,0-9.9,0.5-14.6,1.5c7.2,10,11.5,22.1,11.5,35.3
		c8.7-4.8,18.7-7.5,29.4-7.5C236.8,213,245,214.8,252.4,218.1z M261.9,223.1c16.2,10.2,27.6,27.4,29.7,47.4c6.6,3.1,14,4.9,21.8,4.9
		c28.4,0,51.5-23.1,51.5-51.5s-23.1-51.5-51.5-51.5C285.2,172.4,262.3,195,261.9,223.1z M228.2,328.5c28.4,0,51.5-23.1,51.5-51.5
		s-23.1-51.5-51.5-51.5s-51.5,23.1-51.5,51.5C176.7,305.5,199.7,328.5,228.2,328.5z M250,332h-43.7c-36.4,0-65.9,29.6-65.9,65.9
		v53.4l0.1,0.8l3.7,1.1c34.7,10.8,64.8,14.5,89.7,14.5c48.5,0,76.6-13.8,78.3-14.7l3.4-1.7h0.4V398C315.9,361.6,286.4,332,250,332z
		 M335.2,278.9h-43.4c-0.5,17.4-7.9,33-19.6,44.2c32.3,9.6,56,39.6,56,75v16.5c42.8-1.6,67.5-13.7,69.1-14.5l3.4-1.8h0.4v-53.5
		C401.2,308.5,371.6,278.9,335.2,278.9z M346.8,171.3c16.2,10.2,27.6,27.4,29.7,47.4c6.6,3.1,14,4.9,21.8,4.9
		c28.5,0,51.5-23.1,51.5-51.5s-23.1-51.5-51.5-51.5C370.1,120.5,347.3,143.2,346.8,171.3z M420.1,227.1h-43.4
		c-0.5,17.4-7.9,33-19.6,44.2c32.3,9.6,56,39.6,56,75v16.5c42.8-1.6,67.5-13.7,69.1-14.5l3.4-1.7h0.4V293
		C486.1,256.6,456.5,227.1,420.1,227.1z M137.8,275.4c10.1,0,19.4-2.9,27.4-8c2.5-16.5,11.4-30.9,24-40.7c0.1-1,0.1-1.9,0.1-2.9
		c0-28.4-23.1-51.5-51.5-51.5c-28.5,0-51.5,23.1-51.5,51.5C86.3,252.3,109.3,275.4,137.8,275.4z M184.1,323.1
		c-11.7-11.2-19-26.7-19.6-44c-1.6-0.1-3.2-0.2-4.8-0.2H116c-36.4,0-65.9,29.6-65.9,65.9v53.5l0.1,0.8l3.7,1.1
		c27.8,8.7,52.7,12.7,74.3,14v-16.1C128.1,362.7,151.7,332.7,184.1,323.1z"/>
</g>
</svg>
