<?xml version="1.0" encoding="UTF-8" standalone="no"?>
<!-- Created with Inkscape (http://www.inkscape.org/) -->

<svg
   version="1.1"
   id="svg198"
   width="653.29028"
   height="465.49878"
   viewBox="0 0 653.29029 465.49878"
   sodipodi:docname="2604_R0lVIE5JQyA1NjgtNTE.eps"
   xmlns:inkscape="http://www.inkscape.org/namespaces/inkscape"
   xmlns:sodipodi="http://sodipodi.sourceforge.net/DTD/sodipodi-0.dtd"
   xmlns="http://www.w3.org/2000/svg"
   xmlns:svg="http://www.w3.org/2000/svg">
  <defs
     id="defs202" />
  <sodipodi:namedview
     id="namedview200"
     pagecolor="#ffffff"
     bordercolor="#000000"
     borderopacity="0.25"
     inkscape:showpageshadow="2"
     inkscape:pageopacity="0.0"
     inkscape:pagecheckerboard="0"
     inkscape:deskcolor="#d1d1d1"
     showgrid="false" />
  <g
     id="g206"
     inkscape:groupmode="layer"
     inkscape:label="Page 1"
     transform="matrix(1.3333333,0,0,-1.3333333,-1087.8945,805)">
    <g
       id="g208"
       transform="scale(0.1)"
       style="fill:#0000ff">
      <path
         d="m 6563.44,15788.1 h -75.93 c 27.98,12.5 53.31,29.8 74.56,51.1 0.44,0.5 0.86,1 1.37,1.5 z m -4674.56,0 v 391.4 h 4250.63 v -165.3 c 0,-68.2 27.81,-130.4 72.5,-175 21.24,-21.3 46.58,-38.6 74.55,-51.1 z m 0,2789.4 h 3290.1 c -14.86,-48.1 -22.85,-99.1 -22.85,-151.9 0,-142 57.67,-271 150.75,-364 92.95,-93.1 222.03,-150.8 363.98,-150.8 141.95,0 271,57.7 363.98,150.8 93.03,93 150.75,222 150.73,364 0.02,52.8 -7.99,103.8 -22.86,151.9 h 400.73 v -1353.3 c -1.93,4.2 -3.65,8.6 -5.66,12.7 -74.05,155.7 -196.97,286.8 -350.62,379.1 -153.61,92.3 -338.2,145.8 -536.3,145.8 H 5094.58 4061.97 c -68.15,0.1 -130.41,-27.8 -175,-72.4 -44.73,-44.7 -72.54,-106.9 -72.52,-175.1 -0.02,-68.2 27.79,-130.4 72.52,-175 44.59,-44.7 106.85,-72.6 175,-72.5 h 974.98 v -974.6 H 1888.88 Z m 3762.34,27.7 c 14.21,-6.2 30.24,-6.2 44.42,0 l 354.23,152.7 -0.14,-48.5 -378.24,-163 -380.75,163 0.16,50 z m -601.79,380.1 618.99,266.7 623.87,-267.1 -618.99,-266.8 -244.57,104.8 263.84,110.2 c 28.68,12 42.22,45 30.24,73.7 -11.99,28.7 -44.98,42.2 -73.66,30.2 l -364.64,-152.4 z M 6073,18425.6 c -0.05,-111.3 -44.93,-211.5 -117.79,-284.4 -72.94,-72.9 -173.12,-117.8 -284.35,-117.8 -111.23,0 -211.43,44.9 -284.36,117.8 -72.87,72.9 -117.73,173.1 -117.78,284.4 0,55.8 11.34,108.8 31.85,157.1 l 348.87,-149.4 c 14.21,-6 30.21,-6 44.4,0.1 l 347.14,149.6 c 20.58,-48.3 32.02,-101.5 32.02,-157.4 z m 314.05,-2546.3 c -37.45,0 -70.86,15 -95.42,39.5 -24.51,24.6 -39.47,58 -39.54,95.4 v 253.7 103.9 128 159.3 c 0,31.1 -25.18,56.2 -56.29,56.2 -31.06,0 -56.29,-25.1 -56.29,-56.2 v -79.2 -208.1 -79.6 h -989.99 v 991.8 27.2 c 0.85,3.8 1.34,7.8 1.34,11.9 0,31.1 -25.22,56.3 -56.28,56.3 H 4061.97 c -37.43,0 -70.81,15 -95.39,39.5 -24.51,24.6 -39.5,58 -39.53,95.4 0.03,37.4 15.02,70.8 39.53,95.4 24.58,24.5 57.96,39.5 95.39,39.5 h 1032.61 576.28 c 237.01,0.1 450.62,-85.4 604.23,-222.1 76.8,-68.2 138.54,-149.2 181.04,-238.5 42.44,-89.4 65.81,-187.1 65.81,-289.9 v -526.9 -103.9 -253.7 c -0.03,-37.4 -15.01,-70.8 -39.5,-95.4 -24.61,-24.5 -57.97,-39.5 -95.39,-39.5 z m 232.68,2810.8 h -457.45 l 0.32,116.3 294.61,127 c 20.6,8.9 34.03,29.3 34,51.7 -0.04,22.5 -13.51,42.9 -34.13,51.7 l -766.55,328.2 c -14.24,6.1 -30.28,6.1 -44.46,-0.1 l -761.56,-328.1 c -20.6,-8.9 -34.03,-29.4 -34.03,-51.8 0.07,-22.4 13.54,-42.8 34.13,-51.7 l 293.81,-125.8 -0.29,-117.4 H 1832.6 c -14.79,0 -29.29,-6 -39.77,-16.5 -10.5,-10.4 -16.52,-25 -16.52,-39.8 v -2398 -504 c 0,-14.8 6.02,-29.3 16.52,-39.8 10.48,-10.4 24.98,-16.4 39.77,-16.4 h 1909.08 c 1.39,-5.5 2.82,-11.5 4.34,-18 11.6,-50 25.58,-128.7 25.48,-217.5 0,-54.8 -5.23,-113.1 -19.1,-170.7 -20.91,-86.6 -60.51,-171 -131.27,-243.2 -63.27,-64.4 -152.4,-120.1 -280.35,-156.9 -15.27,-4.4 -30.94,-8.6 -47.34,-12.5 -30.29,-7 -49.1,-37.3 -42.03,-67.5 7.05,-30.4 37.32,-49.2 67.61,-42 113.77,26.4 207.07,66.9 282.48,117.4 113.34,75.8 185.39,174.4 227.33,276.1 42.11,101.9 55.24,206.5 55.29,299.3 -0.12,95.8 -14.06,179.3 -26.68,235.5 h 737.44 c -12.59,-56.2 -26.56,-139.7 -26.66,-235.5 0,-61.9 5.88,-129 22.23,-197 24.43,-102 73.09,-206.9 160.37,-295.8 87.16,-88.9 211.89,-160.4 382.48,-200 30.25,-7.2 60.55,11.6 67.62,42 7.06,30.2 -11.78,60.5 -42.06,67.5 -16.43,3.9 -32.04,8.1 -47.38,12.5 -80.08,23.1 -145.24,53.6 -198.01,89 -94.2,63.3 -150.97,141.5 -185.94,225.6 -34.84,83.9 -46.73,174 -46.71,256.2 -0.02,76.6 10.3,145.9 20.64,195.6 1.63,7.9 3.24,15.1 4.82,22 1.51,6.4 3,12.4 4.36,17.9 h 1909.09 c 14.8,0 29.3,6 39.78,16.5 10.51,10.4 16.5,24.9 16.5,39.7 v 504 2398 c 0,14.8 -5.99,29.4 -16.5,39.8 -10.48,10.5 -24.98,16.5 -39.78,16.5"
         style="fill:#0000ff;fill-opacity:1;fill-rule:nonzero;stroke:none"
         id="path210"
         inkscape:export-filename="../../Git/1-oct-landingpage/docs/images/icon/2.svg"
         inkscape:export-xdpi="96"
         inkscape:export-ydpi="96" />
      <path
         d="m 2294.36,17981.6 h 505.03 c 31.1,0 56.31,25.2 56.31,56.3 0,31.1 -25.21,56.3 -56.31,56.3 h -505.03 c -31.1,0 -56.31,-25.2 -56.31,-56.3 0,-31.1 25.21,-56.3 56.31,-56.3"
         style="fill:#0000ff;fill-opacity:1;fill-rule:nonzero;stroke:none"
         id="path212" />
      <path
         d="M 3454.98,17570.6 H 2294.36 c -31.1,0 -56.31,-25.3 -56.31,-56.3 0,-31.1 25.21,-56.3 56.31,-56.3 h 1160.62 c 31.07,0 56.29,25.2 56.29,56.3 0,31 -25.22,56.3 -56.29,56.3"
         style="fill:#0000ff;fill-opacity:1;fill-rule:nonzero;stroke:none"
         id="path214" />
      <path
         d="M 3378.13,17043 H 2294.36 c -31.1,0 -56.31,-25.2 -56.31,-56.3 0,-31.1 25.21,-56.3 56.31,-56.3 h 1083.77 c 31.1,0 56.32,25.2 56.32,56.3 0,31.1 -25.22,56.3 -56.32,56.3"
         style="fill:#0000ff;fill-opacity:1;fill-rule:nonzero;stroke:none"
         id="path216" />
      <path
         d="m 12279.6,18746.2 c 85.5,-0.1 162.3,-34.5 218.4,-90.5 56.1,-56.1 90.6,-133 90.6,-218.5 0,-85.5 -34.5,-162.4 -90.6,-218.5 -56.1,-56 -132.9,-90.5 -218.4,-90.5 -85.6,0 -162.4,34.5 -218.5,90.5 -56,56.1 -90.5,133 -90.5,218.5 0,85.5 34.5,162.4 90.5,218.5 56.1,56 132.9,90.4 218.5,90.5 z m -421.6,-309 c 0,-116.2 47.3,-222 123.5,-298.2 76.1,-76.1 181.8,-123.4 298.1,-123.4 116.2,0 221.9,47.3 298.1,123.4 76.2,76.2 123.5,182 123.4,298.2 0.1,116.2 -47.2,222 -123.4,298 -76.2,76.2 -181.9,123.6 -298.1,123.5 -116.3,0.1 -222,-47.3 -298.1,-123.5 -76.2,-76 -123.5,-181.8 -123.5,-298"
         style="fill:#0000ff;fill-opacity:1;fill-rule:nonzero;stroke:none"
         id="path218" />
      <path
         d="m 10997.6,17919.8 c -57.4,0 -110,-23.5 -147.5,-61.2 -37.7,-37.5 -61.2,-90.1 -61.2,-147.5 0,-57.5 23.5,-110 61.2,-147.5 37.5,-37.7 90.1,-61.2 147.5,-61.1 h 333.1 v -355.6 H 8580.1 c -17.21,17 -36.58,31.2 -57.37,42.2 -25.63,13.6 -53.35,22.4 -81.84,26.3 v 1879 h 2889.81 v -1174.6 z m 421.3,-1062.5 c 53.4,-53.6 86.3,-126.9 86.4,-208.6 -0.1,-81.6 -33,-155 -86.4,-208.6 -53.6,-53.5 -127,-86.3 -208.6,-86.4 -81.7,0.1 -155.1,32.9 -208.7,86.4 -53.4,53.6 -86.3,127 -86.3,208.6 0,81.7 32.9,155 86.3,208.6 53.6,53.5 127,86.4 208.7,86.4 81.6,0 155,-32.9 208.6,-86.4 z m -1562.2,-0.3 c -16.49,26.9 -36.04,51.6 -58.14,73.6 -48.68,48.8 -110.05,85 -178.68,103.7 h 1458.52 c -59.6,-20.3 -113,-54 -156.3,-97.4 -23.9,-23.8 -44.8,-50.7 -62.2,-79.9 z m -137.74,-415.8 c -52.63,-52.6 -124.72,-84.9 -204.97,-84.9 -80.21,0 -152.31,32.3 -204.94,84.9 -52.51,52.6 -84.87,124.7 -84.87,204.9 0,80.3 32.36,152.3 84.87,205 52.63,52.5 124.73,84.8 204.94,84.8 80.25,0 152.34,-32.3 204.97,-84.8 52.5,-52.7 84.87,-124.7 84.87,-205 0,-80.2 -32.37,-152.3 -84.87,-204.9 z M 8776.5,16857 c -38.79,58.9 -77.48,118.1 -116.02,177.3 h 747.63 c -68.6,-18.7 -129.98,-54.9 -178.69,-103.7 -22.1,-22 -41.64,-46.7 -58.13,-73.6 z m 135.43,-415.8 c 28.9,-44.2 56.23,-92.2 87.82,-139.9 31.6,-47.6 67.59,-95.3 114.45,-137.3 39.86,-35.7 84.45,-62.3 131.38,-81.1 46.98,-18.8 96.2,-29.9 146.24,-35.4 45.69,-5 89.64,-5.6 131.6,-6.6 42.01,-1 82.02,-2.4 119.86,-7.9 68.11,-9.9 133.26,-30.7 193.05,-63.2 56.09,-30.3 109.87,-69.6 155.21,-115.4 45.36,-45.9 82.26,-98.3 105.86,-155 12.9,-30.7 24.4,-66.5 32.5,-102.4 8.2,-35.9 12.9,-72.1 12.9,-103.7 v -470.8 l -300.2,-0.3 v 290.2 c 0,31.1 -25.22,56.3 -56.29,56.3 -31.13,0 -56.31,-25.2 -56.31,-56.3 v -290.3 l -844.79,-1.1 v 472.3 399.6 c 0,3.3 -0.25,6.3 -0.83,9.6 l -18.72,108.2 c -1.27,7.4 -4.23,14.9 -8.28,21.2 l -563.66,864.9 c -14.91,22.9 -21.9,48.2 -21.96,73.5 0,22 5.44,44 15.8,63.5 10.37,19.5 25.53,36.6 45.49,49.7 22.9,14.8 48.16,21.8 73.45,21.9 22.05,0 44.01,-5.5 63.56,-15.8 19.51,-10.4 36.62,-25.5 49.68,-45.5 62.59,-96.1 125.06,-192.5 188.59,-288.5 68.53,-103.4 134.91,-209.2 203.6,-314.4 z m 1659.27,-962.5 c 0,76.8 17.4,149.7 49.2,216.4 47.6,100.2 127.9,186.6 230.1,248 102.1,61.4 225.9,97.5 359.8,97.5 178.4,0.1 339,-64.3 454.2,-166.8 57.6,-51.2 103.9,-111.9 135.6,-178.7 31.7,-66.7 49.2,-139.6 49.2,-216.4 v -454.1 l -306.4,-0.3 v 270.7 c 0,31.1 -25.2,56.3 -56.3,56.3 -31.1,0 -56.3,-25.2 -56.3,-56.3 v -270.9 l -440.1,-0.5 v 271.4 c 0,31.1 -25.2,56.3 -56.3,56.3 -31.1,0 -56.3,-25.2 -56.3,-56.3 v -271.5 l -306.4,-0.4 z m 2141.6,2323.2 c -124.2,74.6 -273.3,117.9 -433.2,117.9 h -459.2 -377.1 v 1230.9 c 0,14.8 -6,29.3 -16.4,39.7 -10.5,10.6 -25,16.6 -39.9,16.6 H 8384.61 c -14.84,0 -29.32,-6 -39.82,-16.6 -10.47,-10.4 -16.47,-24.9 -16.47,-39.7 v -1945.6 c -19.64,-6.6 -38.72,-15.6 -56.76,-27.3 -36.23,-23.6 -64.51,-55.5 -83.49,-91.3 -19.01,-35.9 -28.87,-75.8 -28.87,-116.2 -0.03,-46.3 13.09,-93.5 40.19,-135 l 557.31,-855.1 15.94,-92.1 v -394.8 -476.3 c 0,-9.5 2.57,-18.3 6.77,-26.2 -4.15,-7.9 -6.73,-16.8 -6.73,-26.3 0.05,-31.1 25.29,-56.2 56.36,-56.2 l 3188.76,4 c 31.1,0 56.2,25.3 56.2,56.4 0,31 -25.2,56.2 -56.3,56.2 l -55.8,-0.1 v 453.9 c 0,93.9 -21.5,183.7 -60.2,264.8 -57.9,121.8 -153.9,224.2 -273.7,296.1 -119.8,72 -263.6,113.6 -417.7,113.6 -205.6,0 -392.7,-74 -529.1,-195.3 -68.2,-60.6 -123.9,-133.2 -162.5,-214.4 -38.6,-81.1 -60.1,-170.9 -60.1,-264.8 V 15023 l -203.2,-0.3 v 470.6 c 0,42.4 -6.1,86.1 -15.7,128.6 -9.6,42.6 -23,83.8 -38.4,120.8 -30.2,72.4 -75.8,136.2 -129.7,190.8 -54,54.6 -116.46,100 -181.64,135.4 -72.15,39 -150.19,63.8 -230.48,75.5 -46.14,6.7 -90.79,8 -133.41,9 -42.63,1 -83.32,1.7 -121.89,6 -41.72,4.6 -80.85,13.6 -116.72,28 -35.86,14.4 -68.53,34 -98.16,60.5 -36.56,32.7 -66.8,71.9 -95.65,115.6 -28.89,43.6 -56.19,91.2 -87.42,139.2 -52.19,79.9 -103.53,160.9 -155.97,241.7 h 273.49 c -7.92,-31.5 -12.16,-64.4 -12.16,-98.3 -0.05,-110.9 45.13,-211.9 117.83,-284.6 72.67,-72.7 173.64,-117.8 284.57,-117.8 110.94,0 211.95,45.1 284.57,117.8 72.74,72.7 117.91,173.7 117.85,284.6 0,33.9 -4.25,66.8 -12.14,98.3 h 909.83 c -7.4,-30.7 -11.5,-62.7 -11.5,-95.7 0,-112.3 45.8,-214.6 119.5,-288.2 73.5,-73.7 175.8,-119.4 288.2,-119.4 112.4,0 214.6,45.7 288.2,119.4 73.6,73.6 119.3,175.9 119.3,288.2 0,112.4 -45.7,214.6 -119.3,288.2 -43.4,43.4 -96.8,77.1 -156.4,97.4 h 44.9 c 14.9,0 29.4,6 39.9,16.5 10.4,10.5 16.4,25 16.4,39.8 v 411.9 h 319.7 v -779.7 c 0,-31 25.2,-56.3 56.3,-56.3 31.1,0 56.3,25.3 56.3,56.3 v 796.6 28.9 c 0.7,3.4 1,6.8 1,10.5 0,31 -25.2,56.2 -56.2,56.2 h -822.8 c -26.7,0 -50.4,10.7 -67.9,28.1 -17.5,17.6 -28.1,41.3 -28.2,68 0.1,26.7 10.7,50.3 28.2,67.9 17.5,17.5 41.2,28.1 67.9,28.2 h 822.8 459.2 c 186.1,0 353.6,-67.2 473.8,-174.1 60.1,-53.4 108.4,-116.7 141.5,-186.5 33.2,-69.7 51.4,-145.9 51.4,-226 v -419.9 -82.8 -202.1 c 0,-26.7 -10.7,-50.4 -28.1,-67.9 -17.6,-17.5 -41.3,-28.2 -68,-28.2 -26.6,0 -50.3,10.7 -68,28.2 -17.4,17.5 -28,41.2 -28.1,67.9 v 202.1 82.8 93.9 135 c 0,31.2 -25.1,56.3 -56.3,56.3 -31.1,0 -56.2,-25.1 -56.2,-56.3 v -54.9 -174 -82.8 -202.1 c -0.1,-57.4 23.4,-110 61.1,-147.5 37.5,-37.7 90.1,-61.2 147.5,-61.1 57.5,-0.1 110,23.4 147.5,61.1 37.7,37.5 61.2,90.1 61.2,147.5 v 202.1 82.8 419.9 c 0,97.3 -22.3,190.3 -62.3,274.4 -60.1,126.2 -159.6,232.3 -283.8,306.9"
         style="fill:#0000ff;fill-opacity:1;fill-rule:nonzero;stroke:none"
         id="path220" />
      <path
         d="m 10231,18156.4 c -3.3,-25.1 -9.6,-49.7 -18.6,-73.5 v 0.1 c -3.4,-9.1 -6.9,-17.6 -10.4,-25.4 l -0.1,-0.1 c -5.9,-13.1 -12.5,-24.6 -20.1,-34.3 l -0.9,-1 h 0.1 c -9.1,-11.6 -21.9,-24.9 -35.6,-42 v 0 c -15.7,-19.7 -30.5,-40.2 -44.3,-61.4 v 0 c -17.1,-26.5 -33,-54.2 -47,-83.1 -16.2,-33.1 -29.9,-67.5 -40.9,-102.9 v 0 c -6.8,-21.9 -12.3,-44.3 -16.81,-66.8 h -29.94 v 380.4 c 0,31 -25.2,56.2 -56.31,56.2 -31.1,0 -56.29,-25.2 -56.29,-56.2 V 17666 h -49.61 c -15.45,77.1 -44.37,142.4 -74.81,195.2 -19.8,34.4 -40.19,63.8 -57.77,87.9 -17.51,24.1 -32.44,43.6 -40,55.3 l -1.42,2.1 c -3.52,5 -7.04,10.3 -10.67,16 l 0.05,-0.1 c -32.6,51.6 -51.46,112 -51.46,177.2 0,92.1 37.11,174.9 97.47,235.3 60.42,60.3 143.24,97.5 235.33,97.5 92.07,0 174.94,-37.2 235.34,-97.5 60.3,-60.4 97.4,-143.2 97.5,-235.3 0,-14.5 -1,-29.1 -2.8,-43.2 z m -291.53,-832.8 c -10.04,-9.9 -23.32,-15.9 -38.51,-15.9 -15.26,0 -28.52,6 -38.56,15.9 -9.94,10.1 -15.94,23.3 -15.95,38.6 0,2.2 0.37,4.2 0.6,6.3 h 107.79 c 0.26,-2.1 0.65,-4.1 0.65,-6.3 -0.03,-15.3 -6.06,-28.5 -16.02,-38.6 z m -29.33,229.8 h 81.17 v -72.3 h -178.75 v 72.3 z m -9.18,1091.6 c -122.83,0 -234.53,-50 -314.96,-130.5 -80.48,-80.4 -130.48,-192.1 -130.45,-314.9 -0.03,-87.2 25.52,-168.8 68.9,-237.3 l 0.04,-0.1 c 3.93,-6.2 8.2,-12.6 12.7,-19 v 0 c 0.45,-0.7 0.9,-1.4 1.36,-1.9 0,-0.1 0.05,-0.1 0.05,-0.1 11.82,-17.9 26.11,-36.3 41.99,-58.2 24.65,-34 52.57,-75.3 75.6,-124.7 20.55,-44.3 37.04,-94.9 43.79,-152.7 v -180.8 c 0,-14.8 5.98,-29.2 16.47,-39.7 5.14,-5.3 11.3,-9.2 17.96,-12.1 -0.25,-3.6 -0.56,-7.1 -0.56,-10.8 -0.02,-45.9 18.81,-88.1 48.95,-118.2 30.07,-30.1 72.2,-48.9 118.16,-48.9 45.97,0 88.1,18.8 118.14,48.9 30.2,30.1 49,72.3 49,118.2 0,3.4 -0.3,6.8 -0.6,10.1 7.4,2.9 14.2,7.1 19.9,12.8 10.5,10.5 16.5,24.9 16.5,39.7 v 184.9 c 0,3.8 -0.4,7.5 -1.2,11.2 4.1,26.5 10.1,52.9 18.1,78.5 v 0 c 9.2,29.8 20.8,58.9 34.5,87.1 11.8,24.3 25.4,48 40.3,71 v 0 c 11.7,18.1 24.3,35.6 37.8,52.4 9.3,11.8 22.2,25.3 35.9,42.5 h 0.1 l 0.9,1.2 0.2,0.2 c 14.4,18.4 25.2,37.9 34,57.1 5,11 9.3,21.9 13.2,32.1 v 0.1 c 12,31.7 20.4,64.8 24.9,98.5 v 0.1 c 2.5,19.3 3.7,38.7 3.7,57.9 0,122.8 -49.9,234.5 -130.4,314.9 -80.4,80.5 -192.1,130.5 -314.94,130.5"
         style="fill:#0000ff;fill-opacity:1;fill-rule:nonzero;stroke:none"
         id="path222"
         inkscape:export-filename="../../Git/1-oct-landingpage/docs/images/icon/3.svg"
         inkscape:export-xdpi="96"
         inkscape:export-ydpi="96" />
      <path
         d="m 10304.5,18010.9 v 0 c 0,0 0,-0.1 0,-0.1 v 0.1"
         style="fill:#0000ff;fill-opacity:1;fill-rule:nonzero;stroke:none"
         id="path224" />
      <path
         d="m 9910.14,18747.5 c 31.11,0 56.31,25.1 56.31,56.3 v 186.1 c 0,31.1 -25.2,56.3 -56.31,56.3 -31.1,0 -56.29,-25.2 -56.29,-56.3 v -186.1 c 0,-31.2 25.19,-56.3 56.29,-56.3"
         style="fill:#0000ff;fill-opacity:1;fill-rule:nonzero;stroke:none"
         id="path226" />
      <path
         d="m 10460.1,18800.2 -131.7,-131.6 c -22,-22 -22,-57.7 0,-79.6 22,-22 57.7,-22 79.6,0 l 131.7,131.6 c 22,22 22,57.6 0,79.6 -22,22 -57.7,22 -79.6,0"
         style="fill:#0000ff;fill-opacity:1;fill-rule:nonzero;stroke:none"
         id="path228" />
      <path
         d="m 9473.5,18654.5 -131.62,131.7 c -22.02,21.9 -57.66,21.9 -79.65,0 -21.96,-22 -21.96,-57.6 0,-79.7 l 131.64,-131.6 c 21.98,-22 57.65,-22 79.63,0 22.01,22 22.01,57.6 0,79.6"
         style="fill:#0000ff;fill-opacity:1;fill-rule:nonzero;stroke:none"
         id="path230" />
      <path
         d="m 16398.9,18314.7 c 0,161.1 65.1,306.3 170.7,411.9 105.6,105.6 250.9,170.6 411.9,170.7 161.1,-0.1 306.4,-65.1 412,-170.7 105.5,-105.6 170.5,-250.8 170.5,-411.9 0,-161 -65,-306.3 -170.5,-411.9 -105.6,-105.5 -250.9,-170.6 -412,-170.7 -161,0.1 -306.3,65.2 -411.9,170.7 -105.6,105.6 -170.7,250.9 -170.7,411.9 z m 1074.2,-491.5 c 125.7,125.6 203.6,299.7 203.5,491.5 0.1,191.8 -77.8,365.9 -203.5,491.5 -125.7,125.8 -299.8,203.6 -491.6,203.6 -191.8,0 -366,-77.8 -491.5,-203.6 -125.8,-125.6 -203.7,-299.7 -203.6,-491.5 -0.1,-191.8 77.9,-365.9 203.6,-491.5 125.5,-125.7 299.7,-203.6 491.5,-203.6 191.8,0 365.9,77.9 491.6,203.6"
         style="fill:#0000ff;fill-opacity:1;fill-rule:nonzero;stroke:none"
         id="path232" />
      <path
         d="m 16193.8,17205.8 c 224.3,134.7 495.3,213.7 787.7,213.7 389.8,0.1 741.7,-140.5 995.5,-366.2 126.8,-112.7 229,-246.7 299.5,-394.9 24.1,-50.6 44.3,-102.8 60.7,-156.4 -36.5,1.1 -73.5,1.7 -110.9,1.7 -146.2,0 -298.3,-9 -444.9,-33 -110,-18.1 -217,-44.5 -316.4,-82.6 -74.6,-28.5 -144.8,-63.5 -208.6,-106.5 -95.5,-64.4 -176.6,-147.2 -233,-251.1 -4.8,-8.8 -9.1,-18 -13.5,-27 -6.4,-13.2 -12.4,-26.6 -18,-40.3 -5.6,13.7 -11.7,27.2 -18.1,40.4 -37.3,76.6 -87.2,142.9 -146.7,198.7 -130,122 -302.5,196.3 -489.1,241.2 -186.8,44.8 -388.5,60.2 -580.5,60.3 -44.6,0 -88.7,-1 -131.9,-2.5 16.4,53.9 36.7,106.3 60.9,157.1 105.7,222.3 283,412.6 507.3,547.4 z m 2614.7,-856.9 c 76.7,-10.5 139.5,-21.1 183.1,-28.9 8.4,-1.5 15.8,-2.9 22.7,-4.3 v -331.5 c -135.8,21 -463,65.5 -818.6,65.5 -143.9,0 -292.6,-7.3 -435.3,-26.6 -107.1,-14.6 -210.9,-35.9 -307.3,-66.3 -144.2,-45.8 -272.4,-112 -366.6,-209.8 -13,-13.5 -25.3,-27.7 -37,-42.6 3.2,57.5 12,109.9 25.9,157.6 30.8,105.6 85.2,189.3 158.4,258.3 54.9,51.6 120.7,94.6 194.8,129.9 111,53 240.7,88.5 377.6,110.5 136.8,22 280.7,30.5 420.1,30.4 220,0.1 428.8,-21 582.2,-42.2 z m 205.8,-911 c -227.8,2.3 -1104.5,10.8 -1958.6,11.2 4.2,24.1 10.2,47 17.7,68.5 4.4,12.4 9.5,24.3 14.9,36 h 1926 z m -3440.9,12.9 c -196.6,0.4 -361.6,0.8 -477.5,1.1 -53.1,0.2 -95.7,0.3 -126.4,0.4 v 101.3 h 1926.3 c 2.8,-6.2 5.6,-12.5 8.1,-18.8 10.7,-26.6 18.8,-55.1 24.2,-85.7 -485.3,0.1 -977.9,0.9 -1354.7,1.7 z m -603.9,419.4 c 119.5,19.1 456.2,67 818.5,66.9 140.1,0 284.1,-7.1 420.3,-25.6 102.2,-13.8 200,-34.1 288.4,-62.1 132.8,-41.9 243.8,-101.5 319.4,-180.4 1,-0.9 1.8,-1.9 2.7,-2.8 h -1849.3 z m 4044.8,-204 h -1848.9 c 17.5,18.5 36.7,36.1 57.8,52.6 52.8,41 116.8,75.6 189,104.1 108.4,42.8 235.4,71.7 369.7,89.4 134.3,17.9 275.9,24.8 413.8,24.8 226.7,0 443.5,-18.7 603.2,-37.4 79.9,-9.3 145.6,-18.7 191.1,-25.7 9,-1.4 17,-2.6 24.3,-3.8 z m -4044.9,649.5 c 114.7,21.6 436.8,75.5 788.1,75.5 141.6,0 287.9,-8.8 426.7,-31.6 104.1,-17.1 203.9,-42 294.4,-76.6 67.8,-26 130.4,-57.4 185.8,-94.8 83.3,-56.1 150.2,-125.3 197.1,-211.4 41,-75.7 67.1,-165.1 72.9,-272.8 -30.3,38.6 -65.4,73.3 -104.7,103.7 -63.3,49.1 -136.7,88.4 -216.8,120 -120.1,47.3 -255.4,77.5 -396.2,96.2 -140.7,18.7 -287,25.8 -428.7,25.8 -355.4,0 -682.7,-44.4 -818.6,-65.5 z m 615.4,391.1 c -32.2,-67.7 -58.4,-138.4 -78,-211.3 -341,-21.6 -603.6,-78.2 -605.5,-78.4 -25.9,-5.7 -44.4,-28.6 -44.4,-55.1 v -350.9 -614.9 c 0,-31.1 25,-56.2 56.1,-56.3 0,0 1032.1,-3.3 2028.2,-3.4 0,-0.1 0.1,-0.2 0.1,-0.3 2,-4 4.4,-7.6 7.1,-11 0.7,-0.8 1.3,-1.6 2,-2.3 1.2,-1.4 2.5,-2.7 3.8,-3.9 1.2,-1.1 2.4,-2 3.6,-3 1.2,-0.8 2.3,-1.8 3.5,-2.6 2.5,-1.6 5.2,-3 7.9,-4.2 0.8,-0.4 1.8,-0.8 2.7,-1.1 2.3,-0.9 4.7,-1.6 7,-2.2 1,-0.2 1.9,-0.4 2.8,-0.6 3.3,-0.6 6.8,-1 10.2,-1 3.5,0 6.9,0.4 10.2,1 1,0.2 1.8,0.4 2.8,0.6 2.4,0.6 4.7,1.3 7,2.2 0.9,0.3 1.9,0.7 2.8,1.1 2.7,1.2 5.3,2.6 7.8,4.2 1.3,0.8 2.4,1.8 3.5,2.6 1.2,1 2.4,1.9 3.5,3 1.4,1.2 2.7,2.5 3.9,3.9 0.7,0.7 1.3,1.5 1.9,2.2 2.8,3.4 5.2,7.1 7.2,11.2 0,0.1 0.1,0.1 0.1,0.2 489.4,-0.2 987.5,-3 1367.5,-5.9 196.6,-1.4 361.6,-3 477.5,-4 57.8,-0.6 103.5,-1 134.6,-1.4 31.2,-0.3 47.8,-0.5 47.8,-0.5 15.1,-0.1 29.6,5.7 40.2,16.3 10.7,10.6 16.8,25 16.8,40 v 228.9 386.1 c 0,0 0,0 0,0 v 366 c 0,26.5 -18.6,49.4 -44.5,55.1 -1.9,0.2 -275.4,59.2 -626.7,79.6 -19.5,72.5 -45.5,142.8 -77.6,210.1 -116,243.9 -309.2,450.1 -551,595.5 -242,145.3 -533,229.8 -845.7,229.8 -417,0 -795.3,-150.2 -1070.2,-394.6 -137.5,-122.2 -249.1,-268.1 -326.5,-430.7"
         style="fill:#0000ff;fill-opacity:1;fill-rule:nonzero;stroke:none"
         id="path234"
         inkscape:export-filename="../../Git/1-oct-landingpage/docs/images/icon/4.svg"
         inkscape:export-xdpi="96"
         inkscape:export-ydpi="96" />
      <path
         d="m 19385.4,15218.1 h -4787 c -31.1,0 -56.3,-25.2 -56.3,-56.3 0,-31.1 25.2,-56.3 56.3,-56.3 h 4787 c 31.1,0 56.4,25.2 56.4,56.3 0,31.1 -25.3,56.3 -56.4,56.3"
         style="fill:#0000ff;fill-opacity:1;fill-rule:nonzero;stroke:none"
         id="path236" />
      <path
         d="m 6072.87,9897.7 c 0,31.2 -25.21,56.3 -56.31,56.3 H 3356.02 c -31.08,0 -56.29,-25.1 -56.29,-56.3 0,-31 25.21,-56.3 56.29,-56.3 h 2660.54 c 31.1,0 56.31,25.3 56.31,56.3"
         style="fill:#0000ff;fill-opacity:1;fill-rule:nonzero;stroke:none"
         id="path238" />
      <path
         d="m 2508.71,11620.1 c 0.02,70.7 28.48,134.1 74.75,180.5 46.36,46.3 109.84,74.7 180.5,74.7 70.69,0 134.15,-28.4 180.53,-74.7 46.27,-46.4 74.71,-109.8 74.76,-180.5 -0.05,-70.7 -28.49,-134.2 -74.76,-180.5 -46.38,-46.3 -109.84,-74.8 -180.53,-74.8 -70.66,0 -134.14,28.5 -180.5,74.8 -46.27,46.3 -74.73,109.8 -74.75,180.5 z m 515.36,-260.1 c 66.52,66.4 107.78,158.6 107.75,260.1 0.03,101.4 -41.23,193.7 -107.75,260.1 -66.37,66.5 -158.7,107.8 -260.11,107.7 -101.38,0.1 -193.71,-41.2 -260.07,-107.7 -66.53,-66.4 -107.8,-158.7 -107.76,-260.1 -0.04,-101.5 41.23,-193.7 107.76,-260.1 66.36,-66.5 158.69,-107.8 260.07,-107.8 101.41,0 193.74,41.3 260.11,107.8"
         style="fill:#0000ff;fill-opacity:1;fill-rule:nonzero;stroke:none"
         id="path240" />
      <path
         d="m 2412.38,11013.9 c 89.63,53.8 198.25,85.6 315.82,85.6 h 391.65 701.79 c 20.53,0 38.56,-8.1 52.07,-21.5 13.41,-13.6 21.57,-31.6 21.6,-52.2 -0.03,-20.5 -8.19,-38.5 -21.6,-52.1 -13.51,-13.4 -31.54,-21.5 -52.07,-21.5 h -701.79 c -16.3,0 -31.55,-6.9 -42.29,-19.2 -10.74,-12.2 -15.65,-28.3 -13.5,-44.5 l 0.39,-3.1 v -650.5 -52 V 8488 c 0,-42.6 -16.31,-80.4 -41.91,-107.5 -25.76,-27.1 -59.77,-42.9 -97.56,-43 -37.75,0.1 -71.74,15.9 -97.52,43 -7.71,8.2 -14.45,17.4 -20.27,27.3 7.77,25.4 12.07,52.3 12.07,80.2 v 1044.8 c 0,31 -25.23,56.2 -56.29,56.2 -9.99,0 -19.2,-2.8 -27.32,-7.3 -17.23,-9.6 -28.99,-27.8 -28.99,-48.9 V 8488 c 0,-42.6 -16.28,-80.4 -41.89,-107.5 -25.81,-27.1 -59.82,-42.9 -97.56,-43 -37.77,0.1 -71.78,15.9 -97.56,43 -25.64,27.1 -41.94,64.9 -41.94,107.5 v 1518.3 127.7 44.7 56.2 14.5 c 0,31.1 -25.17,56.2 -56.28,56.2 -31.07,0 -56.29,-25.1 -56.29,-56.2 v -14.5 -56.2 -172.4 c -0.02,-20.5 -8.17,-38.5 -21.59,-52.1 -13.52,-13.4 -31.55,-21.5 -52.07,-21.5 -20.51,0 -38.59,8.1 -52.09,21.5 -13.43,13.6 -21.54,31.6 -21.56,52.1 v 172.4 70.7 358.1 c 0,67.1 15.23,130.7 42.97,189.2 41.64,87.6 111.94,163.4 201.58,217.2 z m 1035.15,882.4 H 5960.27 V 10207.5 H 3447.53 v 632.1 h 374.11 c 51.25,0 98.18,20.9 131.68,54.5 31.21,31.1 51.24,73.8 54.02,120.8 l 1218.83,372.9 c 29.73,9.1 46.48,40.6 37.37,70.3 -9.1,29.8 -40.57,46.5 -70.3,37.3 l -1213.63,-371.3 c -7.52,12.1 -16.27,23.4 -26.29,33.4 -33.5,33.7 -80.43,54.6 -131.68,54.6 h -374.11 z m -359.42,113.6 v 81.3 h 3196.4 v -81.3 z m 1598.68,984.5 942.77,-790.7 H 3768.99 Z M 2109.1,10845.1 c -34.6,-72.8 -53.89,-153.3 -53.87,-237.6 v -358.1 -70.7 -172.4 c -0.02,-51.2 20.91,-98.1 54.56,-131.6 33.53,-33.7 80.42,-54.7 131.69,-54.6 26.08,0 51,5.4 73.66,15.2 V 8488 c 0,-71.6 27.52,-137.2 72.73,-184.9 45.08,-47.7 108.97,-78.2 179.34,-78.2 70.15,0 133.84,30.3 178.92,77.8 45,-47.5 108.71,-77.8 178.85,-77.8 70.39,0 134.26,30.5 179.31,78.2 45.24,47.7 72.75,113.3 72.75,184.9 v 1694.9 52 604.7 h 157.92 v -688.4 c 0,-14.8 5.97,-29.3 16.47,-39.8 10.5,-10.4 24.98,-16.5 39.82,-16.5 h 2625.31 c 14.85,0 29.34,6.1 39.82,16.5 10.5,10.5 16.49,25 16.49,39.8 v 1746.1 h 267.93 c 14.84,0 29.32,6 39.83,16.5 10.44,10.5 16.46,25 16.46,39.8 v 193.8 c 0,14.9 -6.02,29.3 -16.46,39.9 -10.51,10.4 -24.99,16.4 -39.83,16.4 h -536.05 l -1082.27,907.8 c -21.09,17.6 -52.04,17.4 -72.93,-0.5 L 3596.5,12203.7 h -564.68 c -14.84,0 -29.34,-6 -39.84,-16.4 -10.48,-10.6 -16.44,-25 -16.44,-39.9 v -193.8 c 0,-14.8 5.96,-29.3 16.47,-39.8 10.47,-10.5 24.97,-16.5 39.81,-16.5 h 303.14 v -685.2 H 3119.85 2728.2 c -183.86,0 -351.27,-66.2 -473.45,-174.8 -61.15,-54.4 -111,-119.4 -145.65,-192.2"
         style="fill:#0000ff;fill-opacity:1;fill-rule:nonzero;stroke:none"
         id="path242"
         inkscape:export-filename="../../Git/1-oct-landingpage/docs/images/icon/1.svg"
         inkscape:export-xdpi="96"
         inkscape:export-ydpi="96" />
      <path
         d="m 4774.87,11155.8 c 0,-31.1 25.22,-56.3 56.28,-56.3 h 962.64 c 31.11,0 56.29,25.2 56.29,56.3 0,31.1 -25.18,56.3 -56.29,56.3 h -962.64 c -31.06,0 -56.28,-25.2 -56.28,-56.3"
         style="fill:#0000ff;fill-opacity:1;fill-rule:nonzero;stroke:none"
         id="path244" />
      <path
         d="m 5793.79,10846.1 h -962.64 c -31.06,0 -56.28,-25.2 -56.28,-56.2 0,-31.1 25.22,-56.3 56.28,-56.3 h 962.64 c 31.11,0 56.29,25.2 56.29,56.3 0,31 -25.18,56.2 -56.29,56.2"
         style="fill:#0000ff;fill-opacity:1;fill-rule:nonzero;stroke:none"
         id="path246" />
      <path
         d="m 5793.79,10545.3 h -962.64 c -31.06,0 -56.28,-25.2 -56.28,-56.3 0,-31.1 25.22,-56.2 56.28,-56.2 h 962.64 c 31.11,0 56.29,25.1 56.29,56.2 0,31.1 -25.18,56.3 -56.29,56.3"
         style="fill:#0000ff;fill-opacity:1;fill-rule:nonzero;stroke:none"
         id="path248" />
      <path
         d="m 8855.41,11213.4 c 0.07,74.8 30.16,142 79.14,191.1 49.04,48.9 116.25,79.1 191,79.1 74.76,0 141.91,-30.2 190.98,-79.1 49,-49.1 79.1,-116.3 79.1,-191.1 0,-74.7 -30.1,-141.9 -79.1,-190.9 -49.07,-49 -116.22,-79.1 -190.98,-79.2 -74.75,0.1 -141.96,30.2 -191,79.2 -48.98,49 -79.07,116.2 -79.14,190.9 z m 540.72,-270.6 c 69.18,69.1 112.13,165.1 112.06,270.6 0.07,105.5 -42.88,201.6 -112.06,270.6 -69.07,69.2 -165.12,112.2 -270.58,112.1 -105.51,0.1 -201.53,-42.9 -270.63,-112.1 -69.13,-69 -112.09,-165.1 -112.09,-270.6 0,-105.5 42.96,-201.5 112.09,-270.6 69.1,-69.1 165.12,-112.1 270.63,-112.1 105.46,0 201.51,43 270.58,112.1"
         style="fill:#0000ff;fill-opacity:1;fill-rule:nonzero;stroke:none"
         id="path250"
         inkscape:export-filename="../../Git/1-oct-landingpage/docs/images/icon/6.svg"
         inkscape:export-xdpi="96"
         inkscape:export-ydpi="96" />
      <path
         d="m 11625.3,11213.4 c 0,74.8 30.2,142 79.2,191.1 49,48.9 116.2,79.1 191,79.1 74.7,0 141.8,-30.2 190.9,-79.1 49,-49.1 79.1,-116.3 79.1,-191.1 0,-74.7 -30.1,-141.9 -79.1,-190.9 -49.1,-49 -116.2,-79.1 -190.9,-79.2 -74.8,0.1 -142,30.2 -191,79.2 -49,49 -79.2,116.2 -79.2,190.9 z m 540.8,-270.6 c 69.1,69.1 112,165.1 112,270.6 0,105.5 -42.9,201.6 -112,270.6 -69.1,69.2 -165.1,112.2 -270.6,112.1 -105.5,0.1 -201.6,-42.9 -270.6,-112.1 -69.2,-69 -112.2,-165.1 -112.1,-270.6 -0.1,-105.5 42.9,-201.5 112.1,-270.6 69,-69.1 165.1,-112.1 270.6,-112.1 105.5,0 201.5,43 270.6,112.1"
         style="fill:#0000ff;fill-opacity:1;fill-rule:nonzero;stroke:none"
         id="path252" />
      <path
         d="m 10863.9,10071.9 c -48.2,-48.1 -114.1,-77.6 -187.6,-77.7 -73.4,0.1 -139.4,29.6 -187.6,77.7 -48.1,48.2 -77.6,114.2 -77.7,187.6 0.1,73.4 29.6,139.4 77.7,187.6 48.2,48.1 114.2,77.6 187.6,77.7 73.5,-0.1 139.4,-29.6 187.6,-77.7 48.1,-48.2 77.7,-114.2 77.7,-187.6 0,-73.4 -29.6,-139.4 -77.7,-187.6 z m -187.6,565.5 c -104.1,0 -199,-42.4 -267.2,-110.7 -68.3,-68.2 -110.7,-163 -110.7,-267.2 0,-104.1 42.4,-199 110.7,-267.2 68.2,-68.3 163,-110.7 267.2,-110.7 104.2,0 199.1,42.4 267.2,110.7 68.3,68.2 110.7,163.1 110.7,267.2 0,104.2 -42.4,199 -110.7,267.2 -68.1,68.3 -163,110.7 -267.2,110.7"
         style="fill:#0000ff;fill-opacity:1;fill-rule:nonzero;stroke:none"
         id="path254" />
      <path
         d="M 12421.6,8756.5 V 8997 c 0,31.1 -25.2,56.3 -56.3,56.3 -31.1,0 -56.3,-25.2 -56.3,-56.3 v -240.7 l -401,-0.5 V 8997 c 0,31.1 -25.2,56.3 -56.3,56.3 -31,0 -56.2,-25.2 -56.2,-56.3 v -241.3 l -276.7,-0.4 v 412.3 c 0,70.8 16,137.8 45.2,199.5 43.9,92.2 118,171.9 212.3,228.6 94.3,56.6 208.6,90 332.2,90 164.8,0.1 313.1,-59.4 419.4,-154 53.2,-47.2 95.8,-103.1 125,-164.6 29.3,-61.7 45.3,-128.7 45.3,-199.5 v -410.8 z m -504.1,1307.2 c -48.9,49.1 -79.1,116.2 -79.1,191 0,74.7 30.2,141.9 79.1,191 49.1,49 116.2,79 191,79.1 74.8,-0.1 141.9,-30.1 191,-79.1 49,-49.1 79.1,-116.2 79.1,-191 0,-74.8 -30.1,-141.9 -79.1,-191 -49.1,-48.9 -116.2,-79.1 -191,-79.1 -74.8,0 -141.9,30.2 -191,79.1 z m 291,-178.4 c 65.5,17.8 124.2,52.3 170.6,98.8 51.1,51 87.7,116.7 103.5,190 1.6,-15.7 2.6,-31.6 2.6,-47.7 v -426.3 c -82.4,47 -176.2,79 -276.7,91.8 z M 10985.6,8754.7 v 265.7 c 0,31 -25.2,56.2 -56.3,56.2 -31.1,0 -56.3,-25.2 -56.3,-56.2 v -265.8 l -776.9,-1 v 434.8 371.3 c 0,3.3 -0.3,6.3 -0.8,9.6 l -17.4,100.6 c -1.3,7.3 -4.3,14.8 -8.3,21.1 l -523.74,803.6 c -13.42,20.7 -19.71,43.4 -19.71,66.1 0,19.8 4.88,39.6 14.16,57.1 9.36,17.6 22.95,33 40.94,44.7 20.61,13.4 43.32,19.7 66.09,19.7 19.85,0 39.6,-4.9 57.15,-14.1 17.59,-9.4 32.94,-23 44.69,-41 58.13,-89.2 116.22,-178.8 175.28,-268 63.61,-96.1 125.34,-194.3 189.14,-292.2 26.8,-40.9 52.2,-85.5 81.6,-129.9 29.4,-44.5 63.1,-89 107,-128.4 37.4,-33.5 79.2,-58.5 123.2,-76.1 44.1,-17.6 90.2,-28 137,-33.2 42.6,-4.6 83.6,-5.2 122.6,-6.1 39,-0.9 76,-2.2 110.9,-7.3 62.8,-9.1 122.9,-28.3 178,-58.2 51.8,-28 101.5,-64.3 143.3,-106.6 41.8,-42.3 75.8,-90.6 97.5,-142.7 11.9,-28.4 22.5,-61.4 30,-94.5 7.6,-33.1 11.9,-66.5 11.8,-95.5 V 8755 Z M 9607.29,8753 v 442.1 c 0.05,87.9 -20.07,171.9 -56.24,247.8 -33.37,70.2 -80.41,133.5 -137.69,187.4 15.21,10.1 25.25,27.3 25.25,46.9 v 278.5 c 0,31.2 -25.22,56.4 -56.29,56.4 -31.09,0 -56.3,-25.2 -56.3,-56.4 v -255.8 c -10.1,6.8 -20.34,13.5 -30.83,19.7 -106.7,64.1 -233.76,102.4 -370.09,105.8 v 74.6 c 97.56,5 185.84,46.8 250.48,111.6 69.15,69 112.1,165 112.1,270.6 0,105.4 -42.95,201.5 -112.1,270.6 -37.36,37.4 -82.65,67 -133.04,86.4 27.11,3.4 54.76,5.3 83.01,5.3 105.19,0 203.61,-24.3 288.77,-66.4 -0.44,-5.8 -0.77,-11.6 -0.77,-17.4 -0.03,-43.7 12.37,-88.3 37.99,-127.6 l 263.77,-404.7 v -351.2 c 0,-31 25.2,-56.3 56.28,-56.3 31.07,0 56.28,25.3 56.28,56.3 v 178.5 l 141.04,-216.5 14.6,-84.4 v -366.4 -435 z m -389.24,-0.5 v 271.9 c 0,31.1 -25.22,56.4 -56.29,56.4 -31.12,0 -56.33,-25.3 -56.33,-56.4 v -272.1 l -400.95,-0.5 v 272.6 c 0,31.1 -25.16,56.4 -56.28,56.4 -31.07,0 -56.29,-25.3 -56.29,-56.4 v -272.7 l -276.7,-0.4 v 443.8 c 0.02,70.8 16.06,137.8 45.3,199.4 43.88,92.3 117.91,172 212.22,228.7 94.3,56.6 208.6,90 332.23,90 164.82,0 313.11,-59.4 419.42,-154 53.16,-47.2 95.78,-103.2 125.01,-164.7 29.27,-61.6 45.34,-128.6 45.34,-199.4 v -442.3 z m -682.25,1373.9 c 0,15.6 0.92,31.1 2.46,46.4 18.39,-61.7 51.82,-117 96.08,-161.2 48.24,-48.3 109.59,-83.8 178.16,-100.8 v -90.6 c -100.31,-11.9 -194.1,-42.6 -276.7,-88.5 z m 178.18,-35.2 c -49,49 -79.09,116.2 -79.12,191 0.03,74.7 30.12,141.9 79.12,190.9 49.05,49 116.23,79.1 190.98,79.1 74.77,0 141.96,-30.1 191.02,-79.1 48.94,-49 79.06,-116.2 79.11,-190.9 -0.05,-74.8 -30.17,-142 -79.11,-191 -49.06,-49 -116.25,-79.1 -191.02,-79.1 -74.75,0 -141.93,30.1 -190.98,79.1 z m 4288.52,-1334 -191.7,-0.2 v 410.6 c 0.1,87.9 -20.1,171.9 -56.2,247.8 -40.5,85 -100.8,159.9 -175.3,220.4 11.3,10.3 18.5,25 18.5,41.4 v 449.2 c 0,87.9 -20.1,171.9 -56.3,247.7 -54.1,114 -144,209.6 -255.8,276.9 -111.9,67.2 -246.3,106.2 -390.2,106.2 -192,-0.1 -366.8,-69.2 -494.3,-182.6 -63.8,-56.6 -115.8,-124.5 -151.9,-200.5 -36.1,-75.8 -56.2,-159.8 -56.2,-247.7 v -449.2 c 0,-31 25.2,-56.3 56.3,-56.3 31.1,0 56.3,25.3 56.3,56.3 v 449.2 c 0,70.7 16,137.8 45.3,199.4 43.9,92.3 117.9,172 212.2,228.6 94.4,56.7 208.6,90.1 332.3,90.1 47.7,0 93.9,-5.1 138.2,-14.5 -75.6,-14.9 -143.4,-52.3 -195.8,-104.7 -69.1,-69.1 -112.1,-165.1 -112.1,-270.6 0,-105.5 43,-201.5 112.1,-270.6 66.3,-66.4 157.5,-108.5 258,-111.8 v -74.2 c -149.3,-2.4 -287.7,-46.5 -400.9,-120.7 v 278.3 c 0,31.2 -25.2,56.4 -56.4,56.4 -31,0 -56.2,-25.2 -56.2,-56.4 v -278.5 c 0,-25.6 17.2,-47 40.7,-53.8 -2.9,-2.5 -5.9,-5 -8.8,-7.5 -63.8,-56.7 -115.8,-124.6 -151.9,-200.5 -36.1,-75.9 -56.3,-159.9 -56.2,-247.8 v -412.4 h -37 v 433.2 c 0,39.8 -5.7,80.7 -14.7,120.4 -9,39.8 -21.5,78.3 -35.9,113 -28.2,67.6 -70.9,127.4 -121.4,178.4 -50.5,51.1 -108.7,93.5 -169.7,126.5 -67.5,36.5 -140.4,59.7 -215.4,70.6 -43.2,6.3 -84.9,7.5 -124.5,8.5 -39.6,0.8 -77.3,1.5 -112.9,5.5 -38.5,4.2 -74.4,12.5 -107.3,25.8 -33,13.2 -62.9,31.1 -90.1,55.5 -33.6,30 -61.5,66.1 -88.2,106.5 -26.8,40.3 -52.1,84.7 -81.2,129.4 -63.1,96.7 -125,195.1 -189.6,292.8 -58.6,88.6 -116.54,177.9 -174.8,267.3 -22.35,34.3 -52.45,61 -86.33,78.9 -33.89,18 -71.61,27.3 -109.83,27.3 -43.75,0.1 -88.32,-12.3 -127.59,-38 -28.88,-18.8 -52.39,-43.3 -69.87,-70.8 -97.24,45.5 -207.59,71.2 -324.33,71.2 -191.98,-0.1 -366.7,-69.2 -494.24,-182.6 -63.77,-56.6 -115.78,-124.5 -151.9,-200.5 -36.11,-75.8 -56.21,-159.8 -56.19,-247.7 v -449.2 c 0,-7.1 1.47,-13.8 3.85,-20 -5.51,-4.6 -10.99,-9.1 -16.35,-13.9 -63.74,-56.7 -115.74,-124.5 -151.87,-200.4 -36.14,-75.9 -56.26,-159.9 -56.21,-247.8 v -445.5 c -24.93,-5.9 -43.47,-28.1 -43.44,-54.7 0.04,-31.1 25.31,-56.3 56.38,-56.3 l 4787.12,6 c 31.1,0.1 56.2,25.3 56.2,56.4 -0.1,31.1 -25.3,56.2 -56.4,56.2"
         style="fill:#0000ff;fill-opacity:1;fill-rule:nonzero;stroke:none"
         id="path256" />
      <path
         d="m 10687.3,12223.9 c 84.9,-0.1 161.3,-34.3 217,-89.9 55.5,-55.7 89.8,-132.1 89.8,-217 0,-13.4 -0.8,-26.8 -2.5,-39.8 -3.1,-23.2 -8.8,-45.8 -17.1,-67.7 -3.2,-8.4 -6.4,-16.3 -9.7,-23.5 v 0 c -5.5,-12.1 -11.5,-22.6 -18.4,-31.3 l -0.4,-0.6 -0.3,-0.3 c -8.4,-10.7 -20.3,-23.1 -33.2,-39.1 v -0.1 c -14.8,-18.5 -28.6,-37.8 -41.5,-57.5 v -0.1 c -16.2,-24.9 -31,-50.8 -44.1,-77.9 -15.2,-31.1 -28.1,-63.4 -38.4,-96.7 -6.1,-19.5 -11.2,-39.5 -15.2,-59.7 h -21.1 v 351.3 c 0,31.1 -25.2,56.3 -56.3,56.3 -31.1,0 -56.3,-25.2 -56.3,-56.3 v -351.3 h -39.4 c -14.6,71.2 -41.6,131.5 -69.7,180.4 -18.6,32.2 -37.7,59.7 -54.1,82.3 -16.4,22.6 -30.4,40.7 -37.2,51.6 l -1.5,2 c -3.2,4.5 -6.5,9.4 -9.8,14.7 -30,47.6 -47.4,103.2 -47.5,163.3 0.1,84.9 34.3,161.3 89.9,217 55.7,55.6 132.1,89.8 217,89.9 z m 33.3,-1121.8 c -8.7,-8.6 -20.1,-13.7 -33.3,-13.8 -13.2,0.1 -24.6,5.2 -33.3,13.8 -8.6,8.8 -13.8,20.2 -13.8,33.4 0,0.7 0.2,1.4 0.2,2.2 h 93.8 c 0,-0.8 0.2,-1.5 0.2,-2.2 0,-13.2 -5.2,-24.6 -13.8,-33.4 z m -24.7,208.1 h 72 v -60 h -159.3 v 60 z m -428,606.8 c -0.1,-82.1 24,-158.9 64.8,-223.5 l 0.1,-0.1 c 3.6,-5.7 7.7,-11.7 11.9,-17.7 v 0 c 0.4,-0.6 0.8,-1.2 1.1,-1.8 0.1,-0.1 0.2,-0.2 0.3,-0.4 11.1,-16.7 24.4,-33.8 39.2,-54.2 22.9,-31.5 48.8,-69.9 70.1,-115.7 19.1,-41 34.3,-87.8 40.6,-141.2 v -168.5 c 0,-14.8 6,-29.3 16.5,-39.8 4.4,-4.5 9.8,-8 15.5,-10.7 -0.1,-2.6 -0.4,-5.3 -0.4,-7.9 -0.1,-43.9 18,-84.2 46.8,-112.9 28.7,-28.9 69,-46.8 112.9,-46.8 44,0 84.2,17.9 113,46.8 28.7,28.7 46.7,69 46.7,112.9 0,2.4 -0.3,4.6 -0.4,7 6.4,2.8 12.3,6.7 17.3,11.6 10.6,10.5 16.5,25 16.5,39.8 v 172.6 c 0,3.5 -0.3,7 -1,10.4 3.7,24.5 9.3,48.6 16.6,72.2 v 0 c 8.6,27.6 19.4,54.6 32.1,80.8 10.9,22.5 23.5,44.5 37.3,65.8 v 0 c 10.9,16.7 22.6,33 35.1,48.6 8.5,10.8 20.4,23.2 33.3,39.4 0.1,0.1 0.2,0.2 0.2,0.3 l -0.2,-0.3 0.9,1.1 0.4,0.5 c 13.6,17.5 24,35.9 32.2,54.1 v -0.1 c 4.7,10.4 8.7,20.6 12.5,30.3 11.3,29.9 19.2,61 23.4,92.8 v 0.1 c 2.4,18.2 3.5,36.4 3.5,54.5 0.1,115.7 -47,220.8 -122.8,296.6 -75.7,75.8 -180.9,122.9 -296.6,122.9 -115.6,0 -220.9,-47.1 -296.6,-122.9 -75.8,-75.8 -122.9,-180.9 -122.8,-296.6"
         style="fill:#0000ff;fill-opacity:1;fill-rule:nonzero;stroke:none"
         id="path258" />
      <path
         d="m 10752.2,12480.9 v 173.7 c 0,31.1 -25.2,56.3 -56.3,56.3 -31.1,0 -56.3,-25.2 -56.3,-56.3 v -173.7 c 0,-31.2 25.2,-56.3 56.3,-56.3 31.1,0 56.3,25.1 56.3,56.3"
         style="fill:#0000ff;fill-opacity:1;fill-rule:nonzero;stroke:none"
         id="path260" />
      <path
         d="m 11163.2,12277.7 122.9,122.9 c 21.9,22 21.9,57.6 0,79.6 -22,22 -57.7,22 -79.7,0 l -122.8,-122.8 c -21.9,-22 -21.9,-57.7 0,-79.7 22,-21.9 57.6,-21.9 79.6,0"
         style="fill:#0000ff;fill-opacity:1;fill-rule:nonzero;stroke:none"
         id="path262" />
      <path
         d="m 10168.1,12467.1 c -21.9,21.9 -57.6,21.9 -79.6,0 -21.9,-22 -21.9,-57.6 0,-79.6 l 122.9,-122.9 c 22,-22 57.6,-22 79.6,0 22,22 22,57.6 0,79.6 l -122.9,122.9"
         style="fill:#0000ff;fill-opacity:1;fill-rule:nonzero;stroke:none"
         id="path264" />
      <path
         d="m 15261.8,12692.7 h 2497 c 37.3,-0.1 72.7,9.5 103.4,26.3 v -465.9 h -1796.9 c -14.9,0 -29.3,-6 -39.8,-16.4 -10.5,-10.6 -16.5,-25 -16.5,-39.8 V 9016.1 h -747.2 c -28.7,0.1 -54.2,11.6 -73.1,30.3 -18.8,18.9 -30.2,44.4 -30.3,73.2 V 12719 c 30.8,-16.7 66.1,-26.4 103.4,-26.3 z m -73.1,289 c 18.9,18.8 44.4,30.3 73.1,30.3 h 2497 c 28.8,0 54.2,-11.5 73.2,-30.3 18.8,-18.8 30.2,-44.4 30.2,-73.1 0,-28.8 -11.4,-54.2 -30.2,-73.1 -19,-18.8 -44.4,-30.3 -73.2,-30.3 h -2497 c -28.7,0 -54.2,11.5 -73.1,30.3 -18.8,18.9 -30.2,44.4 -30.3,73.1 0.1,28.7 11.5,54.3 30.3,73.1 z m 3636.7,-841.1 V 8440.9 c 0,-28.7 -11.5,-54.2 -30.3,-73.1 -18.9,-18.8 -44.4,-30.2 -73.1,-30.3 h -2497 c -28.7,0.1 -54.2,11.5 -73.1,30.3 -18.8,18.9 -30.2,44.4 -30.3,73.1 v 3699.7 z m -3779.6,-3021 c 0,-59.5 24.3,-113.9 63.3,-152.8 38.9,-39 93.3,-63.3 152.7,-63.3 h 747.2 v -462.6 c 0,-59.4 24.3,-113.8 63.2,-152.7 39,-39 93.4,-63.3 152.8,-63.3 h 2497 c 59.4,0 113.9,24.3 152.8,63.3 39,38.9 63.2,93.3 63.2,152.7 v 3756 c 0,14.7 -6,29.2 -16.5,39.8 -10.5,10.4 -24.9,16.4 -39.8,16.4 h -906.9 v 622.3 c 0,3.7 -0.3,7.5 -1.1,11.1 0.8,7.3 1.1,14.7 1.1,22.1 0,59.4 -24.2,113.8 -63.2,152.7 -38.9,39 -93.3,63.4 -152.8,63.3 h -2497 c -59.4,0.1 -113.8,-24.3 -152.7,-63.3 -39,-38.9 -63.3,-93.3 -63.3,-152.7 0,-7.4 0.4,-14.8 1.2,-22.1 -0.7,-3.6 -1.2,-7.4 -1.2,-11.1 V 9119.6"
         style="fill:#0000ff;fill-opacity:1;fill-rule:nonzero;stroke:none"
         id="path266"
         inkscape:export-filename="../../Git/1-oct-landingpage/docs/images/icon/5.svg"
         inkscape:export-xdpi="96"
         inkscape:export-ydpi="96" />
      <path
         d="m 16405.7,11615.7 h 710.2 c 31.1,0 56.3,25.2 56.3,56.2 0,31.2 -25.2,56.3 -56.3,56.3 h -710.2 c -31.1,0 -56.3,-25.1 -56.3,-56.3 0,-31 25.2,-56.2 56.3,-56.2"
         style="fill:#0000ff;fill-opacity:1;fill-rule:nonzero;stroke:none"
         id="path268" />
      <path
         d="m 16405.7,11207 h 2062.5 c 31.1,0 56.3,25.2 56.3,56.3 0,31.1 -25.2,56.3 -56.3,56.3 h -2062.5 c -31.1,0 -56.3,-25.2 -56.3,-56.3 0,-31.1 25.2,-56.3 56.3,-56.3"
         style="fill:#0000ff;fill-opacity:1;fill-rule:nonzero;stroke:none"
         id="path270" />
      <path
         d="m 16405.7,10695.2 h 2062.5 c 31.1,0 56.3,25.2 56.3,56.3 0,31.1 -25.2,56.3 -56.3,56.3 h -2062.5 c -31.1,0 -56.3,-25.2 -56.3,-56.3 0,-31.1 25.2,-56.3 56.3,-56.3"
         style="fill:#0000ff;fill-opacity:1;fill-rule:nonzero;stroke:none"
         id="path272" />
      <path
         d="m 16405.7,10182.8 h 2062.5 c 31.1,0 56.3,25.1 56.3,56.2 0,31.1 -25.2,56.3 -56.3,56.3 h -2062.5 c -31.1,0 -56.3,-25.2 -56.3,-56.3 0,-31.1 25.2,-56.2 56.3,-56.2"
         style="fill:#0000ff;fill-opacity:1;fill-rule:nonzero;stroke:none"
         id="path274" />
      <path
         d="m 16405.7,9694.1 h 2062.5 c 31.1,0 56.3,25.3 56.3,56.3 0,31.1 -25.2,56.3 -56.3,56.3 h -2062.5 c -31.1,0 -56.3,-25.2 -56.3,-56.3 0,-31 25.2,-56.3 56.3,-56.3"
         style="fill:#0000ff;fill-opacity:1;fill-rule:nonzero;stroke:none"
         id="path276" />
      <path
         d="m 5854.34,5199.6 c -190.33,121.2 -412.88,187.1 -640.85,187.1 -73.29,0 -147.15,-6.8 -220.64,-20.8 -30.56,-5.8 -50.6,-35.2 -44.8,-65.8 5.84,-30.5 35.29,-50.5 65.86,-44.7 5.18,0.9 10.4,1.6 15.58,2.5 61.33,10.8 122.83,16.3 184,16.3 206.26,0 407.97,-59.7 580.32,-169.5 172.36,-109.9 315.22,-269.7 404.5,-470.6 63.25,-142.2 93.08,-290.6 93.08,-436.7 0.06,-297.7 -124.58,-585.8 -344.63,-789.9 -3.88,-3.6 -7.56,-7.4 -11.49,-11 -23.11,-20.8 -24.97,-56.4 -4.16,-79.5 20.78,-23.1 56.39,-25 79.52,-4.2 251.3,226.5 393.31,549.7 393.33,884.6 0.02,161.5 -33.06,325.6 -102.75,482.5 -98.42,221.5 -256.58,398.5 -446.87,519.7"
         style="fill:#0000ff;fill-opacity:1;fill-rule:nonzero;stroke:none"
         id="path278"
         inkscape:export-filename="../../Git/1-oct-landingpage/docs/images/icon/path278.svg"
         inkscape:export-xdpi="96"
         inkscape:export-ydpi="96" />
      <path
         d="m 3238.45,2322.4 c 20.49,0 41.02,0.5 61.62,1.6 31.04,1.6 54.89,28 53.31,59.1 -1.63,31 -28.12,54.9 -59.16,53.3 -5.31,-0.2 -10.58,-0.2 -15.88,-0.4 -13.28,-0.5 -26.62,-1 -39.89,-1 -216.22,0 -426.56,65.6 -603.24,184.8 -176.72,119.2 -319.72,291.6 -402.16,505.8 -48.97,127.3 -72.09,257.9 -72.12,386.4 -0.05,347.3 169.44,679 457.5,881.3 4.3,2.9 8.54,6 12.92,9 25.7,17.5 32.35,52.5 14.86,78.3 -17.5,25.6 -52.52,32.3 -78.22,14.8 -327.19,-222.8 -519.58,-593.8 -519.66,-983.4 0,-142 25.64,-286.6 79.66,-426.9 90.84,-236.2 249.14,-427.2 444.29,-558.7 195.12,-131.5 427.11,-204 666.17,-204"
         style="fill:#0000ff;fill-opacity:1;fill-rule:nonzero;stroke:none"
         id="path280" />
      <path
         d="m 5951.04,3060.8 2.81,1 v 0 l 29.51,10.3 z m -66.44,-43.4 c -32.41,-27.3 -81.03,-60.3 -142.18,-96.1 -91.93,-53.9 -212.44,-114.7 -353.38,-177.9 -132.18,-59.4 -282.52,-120.9 -444.53,-181.3 l -91.47,261.5 c 217.37,71 419.83,127.7 591.22,167 89.96,20.6 171.4,36.4 241.68,47 70.2,10.6 129.43,16 173.76,15.9 24.54,0.1 44.52,-1.8 58.13,-4.3 -7.48,-8.7 -18.59,-19.7 -33.23,-31.8 z m -866.36,-707.9 c 26.05,-22.4 46.61,-51.4 58.87,-86.5 h 0.05 c 7.69,-22 11.36,-44.4 11.36,-66.5 0,-41.5 -13.05,-82 -36.51,-115.6 -23.49,-33.6 -57.07,-60.2 -98.9,-74.8 -22.22,-7.8 -44.66,-11.4 -66.76,-11.4 -41.57,-0.1 -82.01,12.9 -115.6,36.4 -33.57,23.5 -60.12,56.9 -74.75,98.7 -7.78,22.2 -11.41,44.5 -11.41,66.5 -0.02,51.6 20.18,101.5 55.29,138.9 14.38,15.3 19.06,37.3 12.13,57.1 l -136.49,390.3 c 19.39,7 38.98,13.9 58.77,20.8 h -0.07 c 24.32,8.5 48.22,16.7 71.95,24.7 l 139.03,-397.5 c 6.53,-18.7 22.47,-32.6 41.81,-36.6 33.65,-6.9 65.18,-22.3 91.23,-44.5 z m -1020.99,-39 c -89.98,-20.7 -171.43,-36.4 -241.7,-47.1 -70.21,-10.5 -129.44,-15.9 -173.73,-15.9 -24.54,-0.1 -44.57,1.8 -58.15,4.4 7.43,8.7 18.55,19.6 33.21,31.8 32.42,27.3 80.99,60.2 142.18,96 91.92,54 212.42,114.8 353.38,178.1 135.65,60.9 290.45,124.1 457.35,186 l 91.65,-262 c -222.25,-73.1 -429.39,-131.3 -604.19,-171.3 z m -449.36,1825 c -24.04,68.7 -35.4,138.6 -35.4,207.4 -0.03,129.6 40.52,255.3 113.4,359.8 72.98,104.5 177.92,187.7 307.5,233 68.76,24 138.62,35.4 207.37,35.4 129.66,0 255.33,-40.5 359.83,-113.5 104.5,-72.9 187.69,-177.8 233,-307.4 43.7,-125 87.94,-249.3 130.43,-373.9 31.88,-93.5 63.6,-196.4 100.12,-300.8 54.88,-156.4 120.35,-316.3 216.54,-453.8 48.13,-68.7 104.08,-131.8 170.3,-185.3 38.84,-31.3 81.38,-59.2 127.56,-82.9 -196.49,-42.2 -435.3,-108.3 -693.79,-193.8 v 0 c -8.07,-2.6 -15.63,-5.2 -22.43,-7.6 -41.69,-13.5 -83.21,-27.8 -125.19,-42.4 h -0.05 c -37.55,-13.2 -74.83,-26.4 -111.52,-40.2 -12.28,-4.3 -23.88,-8.6 -35.04,-12.6 l -0.05,-0.1 C 4227.93,2720 3994.26,2620 3812.09,2528.5 c 55.21,121.7 79.98,255.2 79.98,391 0,115.4 -17.79,232.5 -50.25,346.7 -81.02,284.3 -198.97,557.2 -293.93,829.3 z m -272.63,2428.1 c -3.07,8.8 -4.48,17.6 -4.48,26.2 0,16.3 5.14,32.2 14.36,45.5 9.27,13.2 22.28,23.5 38.79,29.4 8.77,3.1 17.49,4.5 26.17,4.5 16.25,0 32.22,-5.2 45.49,-14.4 13.22,-9.3 23.55,-22.3 29.35,-38.9 l 543.15,-1553 c -24.08,-5.7 -48.05,-12.6 -71.88,-20.9 -26.74,-9.4 -52.56,-20.2 -77.54,-32.2 z m 2747.4,-3407.7 c -10.16,12.8 -22.45,21.6 -34.67,27.9 -18.55,9.4 -37.76,14.4 -58.8,17.7 -21.08,3.2 -44.05,4.6 -69.49,4.6 -43.45,0 -94.27,-4.1 -151.98,-11.7 -32.06,5.5 -62.72,12.8 -90.22,22.1 -99.95,33.8 -180.9,87.5 -249.95,156.2 -103.43,102.8 -179.03,240.5 -240.13,389.1 -61.23,148.5 -107.91,307.2 -156.83,450.8 -42.82,125.6 -87.17,250.2 -130.74,374.7 -53.29,152.5 -151.7,276.8 -274.85,362.7 -123.14,86 -271.11,133.7 -424.24,133.7 -19.97,0 -40.02,-0.8 -60.13,-2.5 -0.73,2.4 -1.33,4.9 -2.16,7.2 l -547.24,1564.7 -53.12,-18.5 53.12,18.5 c -13.72,39.4 -39.37,71.9 -71.25,94 -31.87,22.3 -70.15,34.6 -109.88,34.6 -21.06,0 -42.52,-3.5 -63.36,-10.7 -39.36,-13.8 -71.76,-39.4 -93.96,-71.3 -22.21,-31.8 -34.58,-70.2 -34.58,-109.9 0,-21 3.47,-42.5 10.8,-63.4 l 547.19,-1564.7 c 1.14,-3.1 2.41,-6.2 3.7,-9.3 -73.68,-50.8 -136.52,-113.9 -186.32,-185.3 -85.89,-123.1 -133.65,-271.1 -133.65,-424.2 -0.06,-81.2 13.42,-163.8 41.69,-244.6 96.91,-277.1 213.78,-548.1 291.91,-822.9 29.87,-105.1 45.95,-212.1 45.95,-315.9 0,-131.6 -25.78,-257.4 -81.31,-368.6 -23.49,-46.9 -52.26,-91.3 -86.84,-132.5 -42.55,-26.1 -79.41,-51 -109.8,-74.7 -27.98,-21.9 -50.75,-42.7 -68.46,-64.6 -8.84,-11.1 -16.48,-22.5 -22.51,-35.4 -5.92,-12.8 -10.39,-27.5 -10.46,-44.4 0,-9.4 1.53,-19.4 4.89,-28.9 v 0 c 3.22,-9.2 8.1,-17.9 13.83,-25.2 10.15,-12.8 22.44,-21.5 34.67,-27.9 18.53,-9.4 37.77,-14.3 58.84,-17.7 21.03,-3.2 44.03,-4.6 69.5,-4.6 52.92,0 116.58,6 190.5,17.1 214.79,32.5 516.45,109.1 853.14,219.1 -34.19,-51.2 -53.41,-111.9 -53.44,-174.9 0,-34.4 5.7,-69.5 17.69,-103.7 22.54,-64.5 64.43,-117.5 116.62,-153.9 52.21,-36.4 114.96,-56.6 180.02,-56.6 34.53,0 69.66,5.7 103.94,17.7 64.62,22.6 117.62,64.4 154.05,116.7 36.44,52.2 56.71,115 56.74,180 0,34.4 -5.7,69.5 -17.66,103.7 l -53.17,-18.5 53.17,18.5 c -18.91,54.1 -51.37,100 -91.98,134.8 -32.19,27.5 -69.56,48 -109.65,60.8 290.66,108.4 544.5,220.2 729.3,319.1 95.76,51.3 172.97,98.8 228.87,142.4 27.95,22 50.72,42.8 68.47,64.7 8.82,11.1 16.49,22.5 22.49,35.4 5.96,12.8 10.38,27.6 10.45,44.4 0,9.4 -1.54,19.4 -4.91,28.9 -3.18,9.3 -8.08,17.9 -13.8,25.2"
         style="fill:#0000ff;fill-opacity:1;fill-rule:nonzero;stroke:none"
         id="path282" />
      <path
         d="m 5509.51,3696.8 c -3.85,-3.7 -7.56,-7.4 -11.52,-11 -23.09,-20.7 -24.93,-56.4 -4.15,-79.5 20.79,-23.1 56.41,-25 79.48,-4.1 69.74,62.8 126.39,137.1 168.56,218.6 56.75,109.4 87.26,231.7 87.26,356.6 0.02,105 -21.51,211.8 -66.82,313.7 -63.95,144 -166.85,259.2 -290.66,338.1 -86.46,55.1 -183.2,92.5 -284.22,110.1 -43.51,7.6 -87.87,11.5 -132.48,11.5 -47.68,0 -95.71,-4.4 -143.5,-13.4 -30.54,-5.9 -50.6,-35.3 -44.8,-65.9 5.82,-30.5 35.27,-50.5 65.86,-44.7 5.19,0.9 10.41,1.7 15.6,2.5 35.61,5.9 71.33,9 106.84,9 126.55,0 250.43,-36.6 356.23,-104.1 105.77,-67.4 193.42,-165.4 248.24,-288.8 38.81,-87.4 57.14,-178.3 57.14,-268 0.03,-180.7 -74.85,-355.6 -207.06,-480.6"
         style="fill:#0000ff;fill-opacity:1;fill-rule:nonzero;stroke:none"
         id="path284" />
      <path
         d="m 3033.04,4159.7 c 4.34,3.1 8.48,6.4 12.84,9.4 25.7,17.5 32.36,52.5 14.88,78.2 -17.49,25.7 -52.5,32.3 -78.2,14.9 -98.13,-66.8 -177.27,-154.3 -234.43,-253.7 -66.86,-116.3 -103.51,-249.2 -103.51,-385.9 -0.03,-92.4 16.67,-186.4 51.78,-277.5 59.04,-153.6 162.06,-277.9 288.93,-363.4 42.01,-28.3 86.7,-52.3 133.23,-71.9 94.06,-39.6 195.93,-60.8 299.98,-60.8 13.3,0 26.67,0.4 40.07,1.1 31.05,1.6 54.89,28.1 53.29,59.1 -1.61,31.1 -28.11,54.9 -59.16,53.3 -5.26,-0.3 -10.55,-0.3 -15.86,-0.4 -6.14,-0.2 -12.28,-0.5 -18.34,-0.5 -132.7,0 -261.79,40.3 -370.28,113.4 -108.47,73.3 -196.16,179 -246.8,310.4 -30.06,78.3 -44.27,158.4 -44.27,237.2 -0.04,211.1 102.22,412.8 275.85,537.1"
         style="fill:#0000ff;fill-opacity:1;fill-rule:nonzero;stroke:none"
         id="path286" />
      <path
         d="m 12454.6,2733.5 c -147.9,31.6 -309.3,76.5 -462.3,139.2 -152.9,62.7 -297.1,143.4 -411.3,245.1 -12.2,10.8 -28.3,15.9 -44.5,13.8 -56.9,-7.2 -114.5,-11.3 -172.9,-11.3 -258.3,0.1 -499.6,71.6 -705.5,195.9 87.6,56.9 168.9,122.7 242.4,196.1 123.1,123.2 224.7,268.2 298.5,428.6 h 958.6 c 31,0 56.2,25.3 56.2,56.3 0,31.1 -25.2,56.3 -56.2,56.3 h -912.3 c 47.2,130 76.6,268.6 85.5,412.7 h 826.8 c 31,0 56.2,25.2 56.2,56.3 0,31.1 -25.2,56.3 -56.2,56.3 h -824.2 c -5.4,400.1 -169.8,762.5 -432.9,1025.5 -40.7,40.7 -83.8,79 -129,114.7 179.1,86.3 379.9,134.5 592.1,134.6 377.6,-0.1 718.8,-152.9 966.3,-400.3 247.5,-247.5 400.3,-588.8 400.3,-966.3 0,-309.5 -102.7,-594.3 -275.9,-823.4 -3.5,-4.6 -6.5,-10.2 -8.3,-15.7 -1.7,-4.7 -19.9,-59.6 -19.9,-152.1 0,-96.3 19.9,-233.3 97.9,-394.6 62.8,-130.2 163.1,-275.9 319.4,-429.5 -99.5,10.5 -236.9,29.2 -388.8,61.8 z m -2600.09,458.2 c -58.38,0 -116,4.1 -172.93,11.3 -16.17,2 -32.35,-3 -44.49,-13.8 -116.01,-103.4 -262.98,-185 -418.65,-248.1 -233.43,-94.8 -485.74,-147.9 -678.97,-176.9 -61.86,-9.3 -117.59,-16.1 -164.86,-21.1 156.43,153.6 256.75,299.3 319.49,429.4 77.95,161.3 97.9,298.4 97.87,394.6 -0.02,92.5 -18.19,147.4 -19.82,152.2 -1.88,5.4 -4.83,11 -8.31,15.6 -173.21,229.2 -275.93,514 -275.97,823.4 0.04,377.6 152.89,718.9 400.28,966.3 247.51,247.5 588.78,400.3 966.36,400.3 377.59,0 718.79,-152.8 966.39,-400.3 247.3,-247.4 400.2,-588.7 400.2,-966.3 0,-377.5 -152.9,-718.9 -400.2,-966.4 -247.6,-247.4 -588.8,-400.2 -966.39,-400.2 z m 3184.59,-546.3 c -218.7,186.3 -343.4,359 -413.8,504.7 -70.2,145.7 -86.5,264.7 -86.6,345.7 0,38.8 3.9,68.9 7.5,88.7 1.6,8.8 3.2,15.6 4.4,20.1 183.3,246.2 292.3,551.8 292.3,882.4 0,408.3 -165.8,778.4 -433.3,1045.9 -267.5,267.6 -637.7,433.3 -1046,433.3 -251,0 -487.4,-62.7 -694.6,-173.1 -233.6,154.4 -513.7,244.5 -814.49,244.4 -408.3,0.1 -778.45,-165.6 -1045.98,-433.2 -267.59,-267.5 -433.26,-637.7 -433.24,-1046 -0.02,-330.6 108.85,-636.1 292.28,-882.4 3.82,-14.8 11.84,-52.5 11.79,-108.8 -0.04,-80.9 -16.37,-200 -86.65,-345.7 -70.35,-145.6 -194.95,-318.4 -413.71,-504.6 -18.25,-15.5 -24.65,-40.9 -15.95,-63.3 8.69,-22.3 30.6,-36.7 54.55,-35.8 2.07,0.1 246.83,9.3 555.04,74 154.11,32.4 324.18,78.6 488.14,145.1 155.77,63.2 305.92,145.1 431.43,251.7 53.12,-5.9 107.2,-9.4 162.3,-9.4 250.89,0 487.39,62.6 694.59,173 233.6,-154.4 513.6,-244.4 814.5,-244.4 55.1,0 109.2,3.5 162.3,9.4 125.5,-106.6 275.6,-188.4 431.4,-251.6 245.9,-99.8 505.6,-154.1 704.6,-184 198.9,-29.9 337,-35.1 338.6,-35.2 23.9,-0.9 45.8,13.5 54.5,35.8 8.8,22.4 2.3,47.8 -15.9,63.3"
         style="fill:#0000ff;fill-opacity:1;fill-rule:nonzero;stroke:none"
         id="path288" />
      <path
         d="m 12162,5099.6 h -417.5 c -31,0 -56.3,-25.2 -56.3,-56.3 0,-31.1 25.3,-56.3 56.3,-56.3 h 417.5 c 31.2,0 56.3,25.2 56.3,56.3 0,31.1 -25.1,56.3 -56.3,56.3"
         style="fill:#0000ff;fill-opacity:1;fill-rule:nonzero;stroke:none"
         id="path290" />
      <path
         d="m 9056.04,5058.4 h 417.55 c 31.08,0 56.29,25.2 56.29,56.3 0,31.1 -25.21,56.3 -56.29,56.3 h -417.55 c -31.08,0 -56.29,-25.2 -56.29,-56.3 0,-31.1 25.21,-56.3 56.29,-56.3"
         style="fill:#0000ff;fill-opacity:1;fill-rule:nonzero;stroke:none"
         id="path292" />
      <path
         d="M 10690.3,4650.2 H 9060.52 c -31.09,0 -56.28,-25.3 -56.28,-56.4 0,-31.1 25.19,-56.3 56.28,-56.3 h 1629.78 c 31,0 56.2,25.2 56.2,56.3 0,31.1 -25.2,56.4 -56.2,56.4"
         style="fill:#0000ff;fill-opacity:1;fill-rule:nonzero;stroke:none"
         id="path294" />
      <path
         d="M 10690.3,4124.9 H 9060.52 c -31.09,0 -56.28,-25.2 -56.28,-56.3 0,-31.1 25.19,-56.3 56.28,-56.3 h 1629.78 c 31,0 56.2,25.2 56.2,56.3 0,31.1 -25.2,56.3 -56.2,56.3"
         style="fill:#0000ff;fill-opacity:1;fill-rule:nonzero;stroke:none"
         id="path296" />
      <path
         d="M 18549.6,2217.9 V 2459 h 143.8 v -241.1 z m -2930.2,0 v 195.9 H 18437 v -195.9 z m -256.5,0 V 2459 h 143.9 v -241.1 z m 256.5,1663.6 H 18437 V 2526.3 h -2817.6 z m 495.8,355.2 -29.9,172.8 c -1.3,7.4 -4.2,14.9 -8.3,21.2 L 15177.4,5811 c -27.5,42.2 -40.4,89 -40.4,135.7 -0.1,40.6 9.9,81 29.1,117 19.1,36 47.1,67.7 83.8,91.7 h 0.1 c 42,27.4 88.9,40.4 135.6,40.4 40.7,0 81,-10 117.1,-29.1 36,-19.1 67.7,-47.1 91.6,-83.9 100,-153.3 199.7,-307.1 300.9,-460.1 109.7,-165.6 215.7,-334.5 325.1,-502.2 46.8,-71.6 90.5,-148.1 140.1,-223 49.6,-74.9 105.3,-148.4 177,-212.7 60.6,-54.2 128.2,-94.6 199.8,-123.3 71.7,-28.6 147.2,-45.8 224.6,-54.3 70.8,-7.8 140,-8.8 207.2,-10.3 67.2,-1.5 132.4,-3.8 195.3,-13 112.3,-16.3 220.1,-50.8 319.3,-104.4 92.2,-50 180.6,-114.4 255.6,-190.3 58,-58.7 107.9,-124.3 145.9,-195 H 16116 v 232.9 c 0,3.3 -0.3,6.3 -0.8,9.6 z M 19385.4,2217.9 H 18806 v 297.3 c 0,14.8 -6.1,29.4 -16.5,39.8 -10.5,10.5 -25,16.5 -39.8,16.5 h -200.1 v 1366.4 c 0,14.8 -6.1,29.3 -16.5,39.7 -10.5,10.6 -25,16.6 -39.9,16.6 h -282.9 c -46.1,102.7 -112.5,194.7 -191.1,274.2 -83.6,84.5 -180.7,155.1 -282,210.1 -111.5,60.3 -232.2,98.8 -356.7,116.9 -71.2,10.3 -141,12.4 -208.8,14 -67.9,1.6 -133.9,2.6 -197.5,9.7 -69.1,7.7 -134.6,22.7 -195.1,46.9 -60.6,24.3 -116.3,57.6 -166.6,102.8 -61.4,54.8 -111.4,120 -158.2,190.8 -47,70.8 -90.5,147.1 -139.7,222.5 -108.7,166.5 -214.8,335.6 -325.4,502.7 -101,152.4 -200.5,306 -300.5,459.5 -34.6,53 -81,94.2 -133.4,121.9 -52.4,27.8 -110.7,42.2 -169.7,42.2 -67.6,0 -136.4,-19 -197.1,-58.7 v 0 c -53,-34.5 -94.2,-81 -122,-133.3 -27.7,-52.3 -42.1,-110.7 -42.1,-169.7 -0.1,-67.6 19.1,-136.3 58.7,-197.1 l 893.2,-1370.7 27.1,-156.6 V 3994.2 H 15563 c -14.8,0 -29.2,-6 -39.7,-16.6 -10.5,-10.4 -16.5,-24.9 -16.5,-39.7 V 2571.5 h -200.1 c -14.9,0 -29.4,-6 -39.9,-16.5 -10.4,-10.4 -16.5,-25 -16.5,-39.8 v -297.3 h -651.9 c -31.1,0 -56.3,-25.2 -56.3,-56.3 0,-31.1 25.2,-56.3 56.3,-56.3 h 708.3 256.3 2930.2 256.5 635.7 c 31.1,0 56.4,25.2 56.4,56.3 0,31.1 -25.3,56.3 -56.4,56.3"
         style="fill:#0000ff;fill-opacity:1;fill-rule:nonzero;stroke:none"
         id="path298" />
      <path
         d="m 17503.9,5078.5 c -89.9,-89.9 -213.5,-145.3 -350.7,-145.3 -137.3,0 -261,55.4 -350.9,145.3 -89.9,89.9 -145.3,213.6 -145.3,350.8 0,21.9 1.5,43.6 4.4,64.7 l 470.5,-201.4 c 14.2,-6.1 30.2,-6.1 44.5,0 l 468.4,201.9 c 2.8,-21.3 4.5,-43.1 4.5,-65.2 -0.1,-137.2 -55.5,-260.9 -145.4,-350.8 z m -369.6,437.6 c 14.1,-6.1 30.2,-6.1 44.4,0.1 l 484.7,208.9 -0.2,-100.1 -509.2,-219.4 -512.6,219.4 0.3,102 z m -833,479.1 848.6,365.7 855,-366.1 -848.6,-365.7 -361.9,154.9 380.4,159.1 c 28.7,11.9 42.3,44.9 30.2,73.6 -11.9,28.7 -44.9,42.2 -73.6,30.2 l -474.6,-198.3 c -2.1,-0.9 -3.9,-2.1 -5.8,-3.2 z m 1474.3,-407.4 0.6,185.9 393.6,169.6 c 20.6,8.9 34.1,29.3 34,51.8 0,22.4 -13.5,42.8 -34.1,51.6 l -997.7,427.2 c -14.2,6.1 -30.2,6.1 -44.4,-0.1 l -991.2,-427.1 c -20.5,-8.9 -34,-29.3 -33.9,-51.8 0,-22.4 13.4,-42.8 34.1,-51.7 l 392.6,-168 -0.4,-187.1 c -0.1,-19.5 9.9,-37.3 26,-47.6 -6.7,-36.1 -10.4,-73.2 -10.4,-111.2 0,-168 68.2,-320.5 178.3,-430.4 110,-110.1 262.5,-178.3 430.5,-178.3 167.9,0 320.4,68.2 430.4,178.3 110,109.9 178.3,262.4 178.3,430.4 0,38.4 -3.8,76 -10.6,112.5 15,10.3 24.3,27.3 24.3,46"
         style="fill:#0000ff;fill-opacity:1;fill-rule:nonzero;stroke:none"
         id="path300" />
    </g>
  </g>
</svg>
